<svg xmlns="http://www.w3.org/2000/svg" xmlns:xlink="http://www.w3.org/1999/xlink" viewBox="0 0 90.84 86.37"><defs><style>.cls-1{fill:none;}.cls-2{clip-path:url(#clip-path);}.cls-3{fill:#3fe18f;}.cls-4{fill:#ff2500;}.cls-5{fill:#1934fe;}</style><clipPath id="clip-path" transform="translate(-1.46 -9.28)"><rect class="cls-1" x="1.81" y="10.77" width="95.05" height="85.3" transform="translate(-10.92 94.13) rotate(-81.32)"/></clipPath></defs><g id="Layer_2" data-name="Layer 2"><g id="Layer_1-2" data-name="Layer 1"><g class="cls-2"><path class="cls-3" d="M74.77,22.53c-12.23-2-19.16,2.74-20.85,13.81-1.86,11.3-3.44,22.52-5.17,33.85C46.54,83.81,38.27,90.45,24.47,89.27c-2-.17-3.07.19-4.24,1.85-3,4.28-7.45,5.59-12.31,3.66A10.42,10.42,0,0,1,1.53,83.92,10.13,10.13,0,0,1,9.75,75c4.92-1.1,9.09,1,11.56,6.37.89,2,2.16,2.31,3.81,2.69,9.14,1.53,16.42-3.82,18-13.58C44.94,59.73,47,49,48,38.19c1.57-15.43,11.49-23.4,26.49-21.38,0-.25.25-.75.14-.9-.89-2-4.13-4.05-.92-6.06,2.93-1.93,4.11,1.55,5.43,3.33,6.9,9.22,7,7.52-2.19,14.28A22.5,22.5,0,0,1,74.83,29c-1.31.85-2.78,1.82-4.11.16-1.57-1.82-.45-3.09,1-4.31A28.09,28.09,0,0,0,74.77,22.53Z" transform="translate(-1.46 -9.28)"/><path class="cls-4" d="M92.19,55.35a10.37,10.37,0,1,1-8.51-11.71A10.58,10.58,0,0,1,92.19,55.35Z" transform="translate(-1.46 -9.28)"/><path class="cls-5" d="M19.47,33.84A10.36,10.36,0,1,1,7.86,42.48,10.41,10.41,0,0,1,19.47,33.84Z" transform="translate(-1.46 -9.28)"/></g></g></g></svg>