<svg xmlns="http://www.w3.org/2000/svg" xmlns:xlink="http://www.w3.org/1999/xlink" viewBox="0 0 83.88 91.87"><defs><style>.cls-1{fill:none;}.cls-2{clip-path:url(#clip-path);}.cls-3{fill:#ffbb23;}.cls-4{fill:#0460fa;}.cls-5{fill:#ff2500;stroke:#ff2500;stroke-linecap:round;stroke-linejoin:round;stroke-width:3px;}</style><clipPath id="clip-path" transform="translate(-0.93 -1.98)"><rect class="cls-1" x="-1.68" y="6.74" width="89.88" height="81.18" transform="translate(-6.63 87.62) rotate(-86.5)"/></clipPath></defs><g id="Layer_2" data-name="Layer 2"><g id="Layer_1-2" data-name="Layer 1"><g class="cls-2"><path class="cls-3" d="M2.53,85.34c-2.9-5.69-1-11.79-.91-17.58,0-4.39.25-8.61.51-13,.6-7.45,1.2-14.91,1.8-22.5,2.24-2,4.9-1.54,7.57-1.38l65.7,4c2.53.15,5.36,0,7.34,2.28C83.6,52.55,83,67.78,81.87,83.12c-.41,6.76-5.33,11-12,10.72-19.42-1-38.82-2.37-58.24-3.56C7.6,90.17,4.9,88,2.53,85.34Z" transform="translate(-0.93 -1.98)"/><path class="cls-4" d="M84.39,37.34,3.93,32.42C3.56,15.29,6.31,9.66,26.19,12.29a2.22,2.22,0,0,1,.91,1.33c.49,1.3.37,3.27,2.2,3.38s1.94-1.85,2.58-3.09A8.3,8.3,0,0,1,33,12.7l24.61,1.51a2.22,2.22,0,0,1,.91,1.33c.49,1.3.37,3.27,2.2,3.38s1.94-1.86,2.59-3.09a7.23,7.23,0,0,1,1.06-1.21c3,.18,5.91.22,8.86.54,8,.63,12,5.26,11.61,13.29C84.89,31.43,84.57,34.38,84.39,37.34Z" transform="translate(-0.93 -1.98)"/><path class="cls-5" d="M64.6,14.64a24.25,24.25,0,0,1-.34,3.23c-.41,2.1-1.61,3.29-3.72,3-1.82-.25-2.72-1.58-2.89-3.42a25.15,25.15,0,0,1,.06-3.25c.1-1.69.2-3.38.45-5.06.14-2.4,1.23-4,3.89-3.72,2.39.28,3,2,2.86,4.13C64.8,11.4,64.7,13,64.6,14.64Z" transform="translate(-0.93 -1.98)"/><path class="cls-5" d="M33.23,12.72A24.08,24.08,0,0,1,32.89,16c-.41,2.1-1.61,3.3-3.72,3-1.82-.26-2.72-1.58-2.89-3.43a25.15,25.15,0,0,1,.06-3.25c.1-1.69.2-3.38.45-5.06.14-2.39,1.23-4,3.89-3.72,2.39.29,3,2,2.86,4.13A30.52,30.52,0,0,0,33.23,12.72Z" transform="translate(-0.93 -1.98)"/><path class="cls-5" d="M66.67,70.88c-.46,2.8-2,4.55-4.79,4.38a4.38,4.38,0,1,1,.54-8.74C65.09,66.69,66.39,68.46,66.67,70.88Z" transform="translate(-0.93 -1.98)"/><path class="cls-5" d="M27.37,50.81c-.59,2.65-2.24,4.39-5.05,4.08a4.08,4.08,0,0,1-3.81-4.62,4.09,4.09,0,0,1,4.91-4.08C26,46.34,27.25,48.12,27.37,50.81Z" transform="translate(-0.93 -1.98)"/><path class="cls-5" d="M42.58,56.12c-2.37-.56-4-2.08-3.82-4.61a4.09,4.09,0,0,1,4.91-4.08c2.81.31,4.24,2.24,3.79,5C47,55,45.12,56.14,42.58,56.12Z" transform="translate(-0.93 -1.98)"/><path class="cls-5" d="M67.74,53.28c-.57,2.51-1.94,4.12-4.48,4-2.81-.17-4.53-2-4.22-4.78s2.24-4.39,5-3.94C66.45,49,67.76,50.74,67.74,53.28Z" transform="translate(-0.93 -1.98)"/><path class="cls-5" d="M42,65.14c2.79.45,4.39,2,4.22,4.78A4.1,4.1,0,0,1,41.77,74c-2.83,0-4.41-1.83-4.38-4.65C37.83,66.72,39.6,65.55,42,65.14Z" transform="translate(-0.93 -1.98)"/></g></g></g></svg>