<svg xmlns="http://www.w3.org/2000/svg" xmlns:xlink="http://www.w3.org/1999/xlink" viewBox="0 0 80.28 89.3"><defs><style>.cls-1{fill:none;}.cls-2{clip-path:url(#clip-path);}.cls-3{fill:#3fe18f;}.cls-4{fill:#0460fa;}</style><clipPath id="clip-path" transform="translate(-3.89 -0.29)"><rect class="cls-1" x="2.73" y="4.27" width="83" height="81.39" transform="translate(-4.49 85.01) rotate(-84.89)"/></clipPath></defs><g id="Layer_2" data-name="Layer 2"><g id="Layer_1-2" data-name="Layer 1"><g class="cls-2"><path class="cls-3" d="M84.17,52.33c-.91,12-2,24-3,35.82-.12,1.26-2.55,2.06-3.62.82C74.45,85.51,71.81,81,68.15,78l-.47-.43c-.67-.06-1.35,0-1.69,0-2.69-.12-5.36-.48-8.08-.73L36.37,74.94c-2.34-.21-6.41-.07-9.43-.72a2.74,2.74,0,0,1-3.23-1.69c-.58-8.62,1-17.25,1.46-25.78.09-1,1.34-1.78,2.68-1.66l53.93,5.2A2.53,2.53,0,0,1,84.17,52.33Zm-7,30.88c.71-9.78,1.24-19.52,2-29.3-16.29-1.58-32.58-3-48.91-4.63C29.84,56.92,30,65,28.11,72.46c3.81.85,11.47.64,14.48.91,6.93.5,13.8,1.11,20.68,1.6,2.69.11,4.89.06,7,1.26C72.91,77.61,75.2,80.36,77.14,83.21Z" transform="translate(-3.89 -0.29)"/><path class="cls-3" d="M79.09,53.91c-.71,9.77-1.24,19.52-2,29.3-1.94-2.85-4.23-5.6-6.85-7C68.21,75,66,75.09,63.27,75c-6.92-.49-13.79-1.11-20.68-1.6-3-.27-10.67-.06-14.48-.91C30,65,29.84,56.92,30.18,49.28,46.51,50.87,62.8,52.33,79.09,53.91Z" transform="translate(-3.89 -0.29)"/><path class="cls-4" d="M69.12,42.59c-.07.84-1,1.26-2.06,1.3l-.33,0c-12.91-.57-25.79-2.06-38.62-3.46-2.14-.19-4.39-.52-6.53-.71l-.71-.06c-4.84,2.15-9,5.8-13.39,8.51-1.34.85-3.71-.08-3.59-1.42a435.29,435.29,0,0,0,3.48-45C7.45.85,8.56.19,9.82.3L68,5.89c1.42.13,2.4.94,2.31,2C70.14,19.48,69.48,31.08,69.12,42.59Zm-4.27-1.74c.23-10.67.12-21.24.35-31.78C47.42,7.23,29.58,5.55,11.8,3.7c-.46,13.11-1.45,26-3.16,39,3.25-2.3,6.47-4.81,10-5.86,2-.66,4.61-.09,6.9.24C38.58,38.5,51.78,40.14,64.85,40.85Z" transform="translate(-3.89 -0.29)"/><path class="cls-4" d="M65.2,9.07c-.23,10.54-.12,21.11-.35,31.78-13.12-.67-26.31-2.36-39.32-3.78-2.29-.33-4.9-.94-6.9-.23-3.47,1-6.74,3.55-9.94,5.85,1.71-13,2.69-25.88,3.15-39C29.58,5.55,47.42,7.23,65.2,9.07Z" transform="translate(-3.89 -0.29)"/></g></g></g></svg>