<?xml version="1.0" encoding="utf-8"?>
<!-- Generator: Adobe Illustrator 24.1.3, SVG Export Plug-In . SVG Version: 6.00 Build 0)  -->
<svg version="1.1" id="Layer_1" xmlns="http://www.w3.org/2000/svg" xmlns:xlink="http://www.w3.org/1999/xlink" x="0px" y="0px"
	 viewBox="0 0 61 78.9" style="enable-background:new 0 0 61 78.9;" xml:space="preserve">
<style type="text/css">
	.st0{clip-path:url(#SVGID_2_);}
	.st1{fill:#0460FA;}
	.st2{fill:#FFBB23;}
</style>
<g id="Layer_2_1_">
	<g id="Layer_1-2">
		<g>
			<defs>
				<rect id="SVGID_1_" y="0" width="51.5" height="66.7"/>
			</defs>
			<clipPath id="SVGID_2_">
				<use xlink:href="#SVGID_1_"  style="overflow:visible;"/>
			</clipPath>
			<g class="st0">
				<path class="st1" d="M51.5,58.2c0,4.6-3.8,8.3-8.4,8.3s-8.3-3.8-8.3-8.4c0.2-4.4,3.8-7.9,8.2-8.1C47.5,49.9,51.4,53.6,51.5,58.2
					z"/>
				<path class="st1" d="M51.5,8.4c0,4.2-4.5,8.4-8.7,8.2c-4.2-0.2-8.2-4.3-8.2-8.3s4.5-8.5,8.7-8.2S51.5,4.3,51.5,8.4z"/>
				<path class="st1" d="M8.4,25.5c4.6,0.1,8.4,3.8,8.4,8.4c-0.2,4.7-4,8.3-8.7,8.3c-4.5-0.3-8-3.9-8.2-8.4
					C-0.1,29.3,3.8,25.5,8.4,25.5z"/>
				<path class="st2" d="M11.9,5.9h7.9c2.4,0,3.8,1.2,3.8,3.6c0,2.1-1.5,3.2-3.6,3.2H3.7c-2.1,0-3.6-1.2-3.6-3.3
					C0.1,7,1.7,5.9,4,5.8C6.6,5.8,9.3,5.9,11.9,5.9z"/>
				<path class="st2" d="M35.7,30.3h7.9c2.4,0,3.8,1.2,3.8,3.6c-0.1,2.1-1.5,3.2-3.6,3.2H27.5c-2.1,0-3.6-1.2-3.6-3.3
					c0-2.3,1.6-3.4,3.8-3.4H35.7z"/>
				<path class="st2" d="M11.8,62.7h-8c-2.4,0-3.8-1.2-3.8-3.6C0.1,57.1,1.5,56,3.6,56H20c2.1,0,3.6,1.2,3.6,3.3
					c0,2.3-1.6,3.4-3.8,3.4L11.8,62.7z"/>
			</g>
		</g>
	</g>
</g>
</svg>
