<svg xmlns="http://www.w3.org/2000/svg" xmlns:xlink="http://www.w3.org/1999/xlink" viewBox="0 0 96.59 93.9"><defs><style>.cls-1{fill:none;}.cls-2{clip-path:url(#clip-path);}.cls-3{fill:#ff2500;}.cls-4{fill:#3fe18f;}.cls-5,.cls-7{fill:#0460fa;}.cls-6{fill:#ffbb23;}.cls-7{stroke:#0460fa;}</style><clipPath id="clip-path" transform="translate(-3.28 -4.01)"><rect class="cls-1" x="2.9" y="3.01" width="97.37" height="93.84" transform="translate(-3.09 3.4) rotate(-3.66)"/></clipPath></defs><g id="Layer_2" data-name="Layer 2"><g id="Layer_1-2" data-name="Layer 1"><g class="cls-2"><path class="cls-3" d="M83.94,82c.39.07.82.71.87,1.57s-.19,1.55-.66,1.68a422,422,0,0,1-77.71,5h-.1c-.38,0-.81-.72-.87-1.58s.19-1.55.67-1.58A431.94,431.94,0,0,1,83.85,82Z" transform="translate(-3.28 -4.01)"/><path class="cls-4" d="M80.18,69.86a4.06,4.06,0,0,1-1.19-2c-1-8.48-2-17.06-3.07-25.45-.45-4.1-.91-8.2-1.27-12.31l-.29-3c0-.1-.11-.19-.21-.28h-.1l-1,.06L70,27l-3,.19c-.1,0-.1,0-.19.11a35.46,35.46,0,0,0,.19,4.4l.63,12.93c.32,7.95.64,15.9.76,23.86,3,0,6.08.19,9.45.26h.19A5.43,5.43,0,0,1,80.18,69.86ZM80.4,29.6a93.46,93.46,0,0,1,1,13.58c.19,9,0,26.32,0,26.32l0,.19c0,.57-.54.61-1.15.07.61.54.64,1,0,1.16-4.37.76-9.24,1.45-14,2A2.08,2.08,0,0,1,63.8,71v-.19s-2-17.26-2.43-25.87l-.83-13-.21-3.25a2.78,2.78,0,0,1-.51-2.08,7.49,7.49,0,0,1,1-3,8.14,8.14,0,0,1,5.06-3.59L66.89,20l2.39-.16,3.26-.21.77-.05s1,.23,1.36.3A5.66,5.66,0,0,1,77.53,21a5,5,0,0,1,2.54,5.12l.23,3.54Z" transform="translate(-3.28 -4.01)"/><path class="cls-4" d="M79,67.82a4.45,4.45,0,0,0,1.19,2,4.2,4.2,0,0,0-2.08-1h-.19c-3.38-.17-6.37-.26-9.45-.26-.22-8-.44-15.92-.76-23.87l-.64-13a33.44,33.44,0,0,1-.19-4.4c0-.1.09-.11.19-.11L70,27l3.07-.2,1-.06h.1c.1.09.2.18.21.28l.29,3c.36,4.11.72,8.22,1.27,12.31Q77.32,55.11,79,67.82Z" transform="translate(-3.28 -4.01)"/><path class="cls-5" d="M51.35,13.21l.28,4.5.29,18c.3,12.09.72,35.3.72,35.3l0,.19c.05.77-.52.9-1.13.37.61.53.45,1-.31,1.17-4.39.66-9.16,1.35-13.84,1.75a2.06,2.06,0,0,1-2.24-1.88v-.09l-3-34.77L31,20.47,29.7,11.71l0-.28,0-.48A5.08,5.08,0,0,0,30,9.87,6.79,6.79,0,0,1,33.5,4.94a8,8,0,0,1,2-.7,1.26,1.26,0,0,1,1,.22l2.68-.17L43.54,4S49,5.1,50.22,7.71a18.05,18.05,0,0,0,.9,2l0,.48.06.86ZM51,71.82a4.79,4.79,0,0,1-1.22-2.51L46.08,34.68,44.61,17.77l-.46-4.2L44,11.47,44,10.61v-.1c0-.09-.21-.18-.3-.17l-3.93.25c-3.73.34-2.59.07-2.84.66L37.44,20l.25,17.46c.71,11,1.13,22,1.34,33,3.08,0,9.65.34,9.65.34h-.1A4.52,4.52,0,0,1,51,71.82Z" transform="translate(-3.28 -4.01)"/><path class="cls-5" d="M49.74,69.31A5.14,5.14,0,0,0,51,71.82a4.09,4.09,0,0,0-2.28-1h.1s-6.56-.35-9.64-.34c-.42-11-.84-22-1.45-33L37.35,20l-.56-8.71c.25-.59-.89-.33,2.84-.66l3.93-.25c.1,0,.2.08.3.17v.1l.05.86.14,2.1.46,4.2,1.56,16.9Z" transform="translate(-3.28 -4.01)"/><path class="cls-6" d="M22,73.39l.21.18C22.2,73.47,22.11,73.48,22,73.39Zm0,0a5.67,5.67,0,0,1-1.06-1.56c-.86-5.9-1.88-11.41-2.61-16.74l-.54-4-.23-2,0-.86c0-.1,0-.1-.11-.19s-.31-.27-.4-.17l-3.91.45L11,48.45l-1.06.07H9.83a.19.19,0,0,0-.18.2l.44,8.33c.21,4.88.35,10,.38,15,3.08.09,6.27.36,9.75.52h.09A3.48,3.48,0,0,1,22,73.39Zm.88.14a1.1,1.1,0,0,1,.43.74q0,.14-.27.3c-4.37.76-9.51,1.76-14.66,2.38a2.47,2.47,0,0,1-2.74-2.13v-.19c-.74-5.62-1.3-11.35-1.76-17l-.37-4.3-.14-2.11L3.3,50.19a8.37,8.37,0,0,1,0-1.34A7.18,7.18,0,0,1,8,42.5a7.32,7.32,0,0,1,2.09-.43L11.14,42l1.73-.11,4.41-.29a6.7,6.7,0,0,1,6.24,4.31,7.12,7.12,0,0,1,.41,1.89L24,49.06l.14,2.29V56c0,6.15-.22,17.59-.22,17.59v.1C24,74,23.48,74,22.88,73.53Z" transform="translate(-3.28 -4.01)"/><path class="cls-6" d="M22.21,73.57,22,73.39C22.11,73.48,22.2,73.47,22.21,73.57Z" transform="translate(-3.28 -4.01)"/><path class="cls-6" d="M20.94,71.73A3.91,3.91,0,0,0,22,73.29a5.15,5.15,0,0,0-1.6-.85h-.09c-3.57-.06-6.76-.33-9.84-.42,0-5-.17-10.08-.39-15.06l-.44-8.33a.21.21,0,0,1,.18-.2h.1L11,48.36l2.11-.14L17,47.78c.19,0,.39.07.39.16a.32.32,0,0,0,.11.19l.06.86.22,2,.55,4C19.05,60.32,20.08,65.83,20.94,71.73Z" transform="translate(-3.28 -4.01)"/><path class="cls-7" d="M97.14,96.79l.24.44h0l0,0,.14-.08.42-.3a3.19,3.19,0,0,0,.47-.44,1.34,1.34,0,0,0,.34-.66v0L99,93.41a20.54,20.54,0,0,0,.34-2.52h0a6.85,6.85,0,0,0-2.23-5.22A2.42,2.42,0,0,0,96,85.08a1.53,1.53,0,0,0-.37,0,1.34,1.34,0,0,0-.17-.31,3.09,3.09,0,0,0-.81-.75l-.13-.09L90.78,80,91.3,78a13,13,0,0,0,4.92-6.28h0a15.07,15.07,0,0,0,.56-2l.53-1.19.14.16.14-.78.08-.17,0-.07h0l.07-.38v-.07l0-.64a5.08,5.08,0,0,0,0-1.23v0h0A10.16,10.16,0,0,0,96,60.61h0a12.56,12.56,0,0,0-16.92-3.1h0a9.68,9.68,0,0,0-3.43,3.71h0l-.25.6h0c-.09.21-.17.41-.25.58v.05l-.21.64v.07l-.06.38,0,.19-.33,1.88v.07c0,.38,0,.75,0,1.11h0c0,.36,0,.72,0,1.11h0a14.3,14.3,0,0,0,1.23,5c.32.8.64,1.51.88,2,.12.26.22.46.29.6l0,.08L76.54,77l-6.05,2.17-.27.06a8.22,8.22,0,0,0-1.38.35,8.91,8.91,0,0,0-1.76.79h0l0,0h0a8.3,8.3,0,0,0-2.57,2.86,6.38,6.38,0,0,0-.75,1.88h-.27l-.48,2.73h0A2.22,2.22,0,0,0,64.33,92l.06,0h.06c6.79,1,14.94,2.37,21.39,3.43,3.23.52,6,1,8,1.32l2.34.38.63.11.16,0h.06Zm0,0,.24.44-.15.08-.17,0ZM93.38,66.17l0,.34-.07.41h0l0,.18-.15.83-.13.77a12.09,12.09,0,0,1-.4,1.7h0a11,11,0,0,1-4.14,5.51,1.6,1.6,0,0,0-.63,1h0l-.57,3.79h0a1.4,1.4,0,0,0,.73,1.18l5.24,4.3,0,0,0,0a2.41,2.41,0,0,0,1.27.36l.2,0,0,.12a3,3,0,0,0,.67,1l0,0,0,0,.13.09A4.22,4.22,0,0,1,96.78,91v0a4.87,4.87,0,0,1-.13.92c0,.11,0,.23-.07.35s0,.22-.07.33l-.11,0-.09.49-.14.82-7.7-1.55C81.37,91,76.37,90,67.27,88.28l.12-.68.85-2.14,0,0v-.07a3.43,3.43,0,0,1,1.14-1.17,4.32,4.32,0,0,1,.69-.35,3.34,3.34,0,0,0,.53-.1h0a3.31,3.31,0,0,1,.48-.09h.06l.06,0,7.23-2.41a2.37,2.37,0,0,0,1.78-1.8l.68-3.87a2.09,2.09,0,0,0-.45-1.73,10,10,0,0,1-1.86-5.68,9.35,9.35,0,0,1,.18-1.53l.37-2.08.1-.56,0-.29.06-.28a.67.67,0,0,1,.06-.15l0,0,0,0a5.45,5.45,0,0,1,1.78-2,7.94,7.94,0,0,1,5.81-1.26h0a8,8,0,0,1,5.13,3,8.61,8.61,0,0,1,1.08,2.65v0a1.47,1.47,0,0,1,.06.46v.12Z" transform="translate(-3.28 -4.01)"/><path class="cls-7" d="M88.49,80.18h0L89,76.76a.56.56,0,0,1,.21-.38,12.31,12.31,0,0,0,4.52-6,11.88,11.88,0,0,0,.43-1.84v0l.25-1.42.44-.37-.3-.43v-.16l0-.4v0l0,0a.93.93,0,0,1,0-.22v0a1.54,1.54,0,0,0,0-.4,5.64,5.64,0,0,0-1.26-3.06,9.47,9.47,0,0,0-5.78-3.39h0A9.88,9.88,0,0,0,80.89,60a5.64,5.64,0,0,0-2.13,2.39l0,.06v.07a2.19,2.19,0,0,1-.08.23v0a1.73,1.73,0,0,0-.12.4l0,.28-.1.57L78,66.05v0a9.9,9.9,0,0,0-.2,1.69h0a10.46,10.46,0,0,0,2.06,6.29,1.19,1.19,0,0,1,.27,1l-.69,3.87a1.18,1.18,0,0,1-1,1h0l0,0-7.2,2.4a5.1,5.1,0,0,0-1.15.21h-.08A6.13,6.13,0,0,0,69,83a4.84,4.84,0,0,0-1.47,1.59l0,.07,0,.08v0l-.86,2.13,0,0V87l-.21,1.23-.09.49.49.09c9.41,1.73,14.45,2.75,21.66,4.21l8.21,1.65.5.1.09-.51.18-1c0-.25.1-.5.15-.75l.09-.39A6.41,6.41,0,0,0,97.79,91a9,9,0,0,0-1.12-4.13l0-.1-.1-.07-.15-.11a2,2,0,0,1-.43-.57.44.44,0,0,1,0-.34L95,85.29a.12.12,0,0,1,0-.05s0,0-.2,0a1.45,1.45,0,0,1-.74-.2l-5.25-4.32,0,0-.06,0A.45.45,0,0,1,88.49,80.18Z" transform="translate(-3.28 -4.01)"/></g></g></g></svg>