<?xml version="1.0" encoding="utf-8"?>
<!-- Generator: Adobe Illustrator 24.2.0, SVG Export Plug-In . SVG Version: 6.00 Build 0)  -->
<svg version="1.1" id="Layer_1" xmlns="http://www.w3.org/2000/svg" xmlns:xlink="http://www.w3.org/1999/xlink" x="0px" y="0px"
	 viewBox="0 0 827.4 274.2" style="enable-background:new 0 0 827.4 274.2;" xml:space="preserve">
<style type="text/css">
	.st0{fill:#FFFCE3;}
	.st1{clip-path:url(#SVGID_2_);}
	.st2{clip-path:url(#SVGID_4_);}
	.st3{clip-path:url(#SVGID_6_);}
	.st4{fill:#AAC1E2;}
	.st5{fill:#7095BA;}
	.st6{clip-path:url(#SVGID_8_);}
	.st7{clip-path:url(#SVGID_10_);}
	.st8{clip-path:url(#SVGID_12_);}
	.st9{clip-path:url(#SVGID_14_);}
	.st10{fill:#FF0000;}
</style>
<g id="Layer_2_1_">
	<g id="Layer_1-2">
		<path class="st0" d="M182.5,238.3H58.9c-31.7,0-57.4-25.7-57.4-57.4V57.3C1.6,25.7,27.2,0,58.9,0h123.6
			c31.7,0,57.4,25.7,57.4,57.3V181C239.9,212.6,214.2,238.3,182.5,238.3z"/>
		<g>
			<defs>
				<path id="SVGID_1_" d="M183.8,237.1H60.2c-31.7,0-57.4-25.7-57.4-57.4V56.1c0-31.7,25.7-57.4,57.4-57.4h123.6
					c31.7,0,57.4,25.7,57.4,57.4v123.6C241.2,211.4,215.5,237.1,183.8,237.1z"/>
			</defs>
			<clipPath id="SVGID_2_">
				<use xlink:href="#SVGID_1_"  style="overflow:visible;"/>
			</clipPath>
			<g class="st1">
				<path class="st0" d="M-188.2,47.4l-74.4,74.4c-18.3,18.3-48,18.3-66.3,0L-448.5,2.2c-18.3-18.3-18.3-48,0-66.3l74.4-74.4
					c18.3-18.3,48-18.3,66.3,0l119.6,119.6C-169.9-0.6-169.9,29.1-188.2,47.4z"/>
			</g>
		</g>
		<g>
			<defs>
				<path id="SVGID_3_" d="M182.5,238.3H58.9c-31.7,0-57.4-25.7-57.4-57.4V57.3C1.6,25.7,27.2,0,58.9,0h123.6
					c31.7,0,57.4,25.7,57.4,57.3V181C239.9,212.6,214.2,238.3,182.5,238.3z"/>
			</defs>
			<clipPath id="SVGID_4_">
				<use xlink:href="#SVGID_3_"  style="overflow:visible;"/>
			</clipPath>
			<g class="st2">
				<g>
					<defs>
						<path id="SVGID_5_" d="M183.8,237.1H60.2c-31.7,0-57.4-25.7-57.4-57.4V56.1c0-31.7,25.7-57.4,57.4-57.4h123.6
							c31.7,0,57.4,25.7,57.4,57.4v123.6C241.2,211.4,215.5,237.1,183.8,237.1z"/>
					</defs>
					<clipPath id="SVGID_6_">
						<use xlink:href="#SVGID_5_"  style="overflow:visible;"/>
					</clipPath>
					<g class="st3">
						<path class="st0" d="M-188.2,47.4l-74.4,74.4c-18.3,18.3-48,18.3-66.3,0L-448.5,2.2c-18.3-18.3-18.3-48,0-66.3l74.4-74.4
							c18.3-18.3,48-18.3,66.3,0l119.6,119.6C-169.9-0.6-169.9,29.1-188.2,47.4z"/>
					</g>
				</g>
			</g>
		</g>
		<rect x="103.6" y="181.6" class="st4" width="14.3" height="56.8"/>
		<rect x="116.6" y="181.6" class="st5" width="14.3" height="56.8"/>
		<g>
			<defs>
				<path id="SVGID_7_" d="M181,238.3H57.4C25.7,238.3,0,212.6,0,181V57.3C0,25.7,25.7,0,57.4,0H181c31.7,0,57.4,25.7,57.4,57.3V181
					C238.3,212.6,212.6,238.3,181,238.3z"/>
			</defs>
			<clipPath id="SVGID_8_">
				<use xlink:href="#SVGID_7_"  style="overflow:visible;"/>
			</clipPath>
			<g class="st6">
				<g>
					<defs>
						<path id="SVGID_9_" d="M182.3,237.1H58.6c-31.7,0-57.4-25.7-57.4-57.4V56.1C1.3,24.5,27-1.2,58.6-1.2h123.6
							c31.7,0,57.4,25.7,57.4,57.4v123.6C239.6,211.4,213.9,237.1,182.3,237.1z"/>
					</defs>
					<clipPath id="SVGID_10_">
						<use xlink:href="#SVGID_9_"  style="overflow:visible;"/>
					</clipPath>
					<g class="st7">
						<path class="st0" d="M-189.7,47.4l-74.4,74.4c-18.3,18.3-48,18.3-66.3,0L-450,2.2c-18.3-18.3-18.3-48,0-66.3l74.4-74.4
							c18.3-18.3,48-18.3,66.3,0l119.6,119.6C-171.4-0.6-171.4,29.1-189.7,47.4z"/>
					</g>
				</g>
				<g>
					<defs>
						<path id="SVGID_11_" d="M181,238.3H57.4C25.7,238.3,0,212.6,0,181V57.3C0,25.7,25.7,0,57.4,0H181c31.7,0,57.4,25.7,57.4,57.3
							V181C238.3,212.6,212.6,238.3,181,238.3z"/>
					</defs>
					<clipPath id="SVGID_12_">
						<use xlink:href="#SVGID_11_"  style="overflow:visible;"/>
					</clipPath>
					<g class="st8">
						<g>
							<defs>
								<path id="SVGID_13_" d="M182.3,237.1H58.6c-31.7,0-57.4-25.7-57.4-57.4V56.1C1.3,24.5,27-1.2,58.6-1.2h123.6
									c31.7,0,57.4,25.7,57.4,57.4v123.6C239.6,211.4,213.9,237.1,182.3,237.1z"/>
							</defs>
							<clipPath id="SVGID_14_">
								<use xlink:href="#SVGID_13_"  style="overflow:visible;"/>
							</clipPath>
							<g class="st9">
								<path class="st0" d="M-189.7,47.4l-74.4,74.4c-18.3,18.3-48,18.3-66.3,0L-450,2.2c-18.3-18.3-18.3-48,0-66.3l74.4-74.4
									c18.3-18.3,48-18.3,66.3,0l119.6,119.6C-171.4-0.6-171.4,29.1-189.7,47.4z"/>
							</g>
						</g>
					</g>
				</g>
				<path class="st10" d="M144.1,183.6h0.5c0,0,1.8-0.1,1.9-1.3l-0.1-1.8c-0.1-0.8-0.7-1.4-1.4-1.7c0.1-3.7-0.2-16.1-1.2-31.9
					c-0.5-7.1-1.2-15.1-2-23.1c-0.2-1.6-0.4-3.2-0.6-4.9c-0.8-6.5-1.8-13-3-19.2c-2.1-10.9-4.6-20.9-8.1-28.8c-0.9-2.1-2-4.1-3.2-6
					l0.2,5.2l0,0l2,106.3l-3.7-0.1l-1.9-111.7l-0.1-12.9c-0.7-1.9-1.5-3.7-2.5-5.4l-10.3-0.1c0,0-11.2,9.5-15.3,129.9l0,0
					c0,0-3.1-0.3-3.2,1.6c-0.2,0.8-0.2,1.7,0,2.5c0.4,0.8,1.1,1.4,1.9,1.7c1.1,0.3,24.7,0.2,32.8,0.3c0.3,0.5,0.8,0.8,1.3,0.9
					l1.7,0.1c0.1,3.3,1.1,78.6,4.8,90.2c0.1,0.5,0.6,0.9,1.2,0.8c0.2-0.1,0.5-0.2,0.6-0.4C137.1,271,143.6,238.5,144.1,183.6z"/>
			</g>
		</g>
		<path class="st0" d="M353.8,133.8h-19.2v30.4c0.1,3.1-0.9,6.1-3,8.4c-3.9,4.1-10.5,4.2-14.5,0.3c-0.1-0.1-0.2-0.2-0.3-0.3
			c-2.1-2.3-3.2-5.3-3-8.4V72.7c-0.4-5.3,3.6-10,8.9-10.4c0.5,0,1,0,1.4,0h30.3c12,0,21.6,3.2,28.8,9.7c7.2,6.5,10.8,15.1,10.8,26
			c0,14.7-6.6,24.9-19.7,30.6l17.2,27.9c2.4,4.1,3.6,7.4,3.6,10c0.1,2.5-0.8,4.9-2.5,6.7c-1.7,1.6-4,2.5-7.1,2.5
			c-4.4,0-8.3-2.8-11.7-8.3L353.8,133.8z M334.5,82.4V114h19.7c5.9,0,10.5-1.4,13.8-4.1c3.3-2.7,4.9-6.6,5-11.7
			c0-5.1-1.6-9-4.9-11.7c-3.3-2.7-7.9-4.1-13.8-4.1L334.5,82.4z"/>
		<path class="st0" d="M466.1,141.8h-41.3c1.6,10.5,7.4,15.8,17.5,15.8c1.1,0,2.2-0.1,3.3-0.2c1.1-0.2,2-0.3,2.6-0.5
			c0.8-0.2,1.6-0.5,2.3-0.9c0.9-0.4,1.4-0.8,1.8-1s0.9-0.6,1.7-1.2s1.3-0.9,1.5-1c1.9-1.3,4.3-2,6.6-2c2.3-0.1,4.4,0.8,6,2.5
			c1.5,1.7,2.4,3.9,2.3,6.2c0,3.9-1.8,7.1-5.4,9.9c-3.5,2.6-7.4,4.5-11.6,5.6c-3.9,1-7.8,1.5-11.8,1.5c-11.6,0-20.7-4.1-27.5-12.2
			c-6.7-8.2-10.1-18.3-10.1-30.3c0-11.9,3.3-21.9,9.8-30c6.5-8.1,15.4-12.2,26.6-12.2c11.3,0,20.2,4.1,26.5,12.2
			c6.3,7.8,9.6,17.6,9.5,27.6c0.4,5.3-3.6,10-8.9,10.4C467.1,141.8,466.6,141.8,466.1,141.8z M425.1,125.5h30.6
			c-0.6-4.2-2.3-8.2-5.1-11.5c-5.4-5.6-14.4-5.8-20-0.4c-0.1,0.1-0.3,0.2-0.4,0.4C427.5,117.3,425.7,121.2,425.1,125.5L425.1,125.5z
			"/>
		<path class="st0" d="M542.5,167.6c-4.3,5.8-11.2,8.7-20.6,8.7c-9.8,0.2-19.1-4.2-25.1-12.1c-6.4-8-9.6-18.1-9.6-30.3
			c0-12.2,3.2-22.4,9.5-30.3c6.3-8,14.8-12,25.3-12c9.2,0,15.9,2.7,20.1,8.2V72.1c-0.1-3,0.9-5.9,2.9-8.2c3.8-3.9,10-4.1,13.9-0.3
			c0.1,0.1,0.2,0.2,0.3,0.3c2,2.2,3,5.2,2.9,8.2v92.5c0.1,3-0.9,5.9-2.9,8.1c-3.5,3.8-9.4,4.2-13.4,0.9
			C544.1,172,542.9,169.9,542.5,167.6z M512.5,150.5c2.9,4.1,7.7,6.5,12.8,6.4c5.1,0.2,9.9-2.3,12.7-6.5c3.1-4.3,4.7-9.8,4.7-16.5
			c0-6.7-1.5-12.2-4.7-16.5c-2.9-4.2-7.6-6.6-12.7-6.5c-5-0.1-9.8,2.3-12.8,6.4c-3.2,4.3-4.8,9.8-4.8,16.6
			C507.8,140.7,509.4,146.3,512.5,150.5z"/>
		<path class="st0" d="M624.6,134.8h-19.4v29.4c0.2,3.1-0.9,6.1-3,8.4c-3.9,4.1-10.5,4.2-14.5,0.3c-0.1-0.1-0.2-0.2-0.3-0.3
			c-2.1-2.3-3.1-5.3-3-8.4V72.7c-0.4-5.3,3.6-10,8.9-10.4c0.5,0,1,0,1.5,0h29.8c12.4,0,22.1,3.3,29.2,10
			c7.1,6.6,10.7,15.4,10.7,26.3c0,10.9-3.6,19.6-10.7,26.3C646.6,131.5,636.9,134.8,624.6,134.8z M605.2,82.4v32.6h19.4
			c6,0,10.7-1.4,14-4.2c3.3-2.8,5-6.8,5-12.2s-1.7-9.4-5-12.2c-3.3-2.8-8-4.2-14-4.2H605.2z"/>
		<path class="st0" d="M731.8,141.8h-41.3c1.6,10.5,7.4,15.8,17.5,15.8c1.1,0,2.2-0.1,3.3-0.2c1.1-0.2,2-0.3,2.6-0.5
			c0.8-0.2,1.6-0.5,2.3-0.9c0.8-0.4,1.5-0.8,1.8-1s0.9-0.6,1.7-1.2s1.3-0.9,1.5-1c1.9-1.4,4.3-2.1,6.6-2c2.3-0.1,4.4,0.8,6,2.5
			c1.5,1.7,2.4,3.9,2.3,6.2c0,3.9-1.8,7.1-5.4,9.9c-3.5,2.6-7.4,4.5-11.7,5.6c-3.9,1-7.8,1.5-11.8,1.5c-11.6,0-20.7-4.1-27.5-12.2
			s-10.1-18.3-10.1-30.3c0-11.9,3.3-21.9,9.8-30s15.4-12.2,26.6-12.2c11.3,0,20.2,4.1,26.5,12.2c6.3,7.8,9.6,17.6,9.5,27.6
			c0.4,5.3-3.6,10-8.9,10.4C732.8,141.8,732.3,141.8,731.8,141.8z M690.8,125.5h30.6c-0.6-4.2-2.3-8.2-5.1-11.5
			c-5.4-5.6-14.4-5.8-20-0.4c-0.1,0.1-0.3,0.2-0.4,0.4C693.2,117.3,691.4,121.2,690.8,125.5L690.8,125.5z"/>
		<path class="st0" d="M777.7,100.3c4.1-5.8,10.8-8.7,20.2-8.7c9.7,0,17.1,3.3,22,10c4.9,6.7,7.4,15.7,7.4,27.1v35.9
			c0.1,3-0.9,5.9-2.9,8.2c-3.8,3.9-10,4.1-13.9,0.3c-0.1-0.1-0.2-0.2-0.3-0.3c-2-2.2-3-5.2-2.9-8.2v-35.4c0-12.1-4.4-18.2-13.1-18.2
			c-4.5-0.1-8.7,1.9-11.6,5.3c-3.1,3.5-4.6,8.4-4.6,14.6v33.7c0.1,3-0.9,5.9-2.9,8.2c-3.8,3.9-10,4.1-13.9,0.3
			c-0.1-0.1-0.2-0.2-0.3-0.3c-2-2.2-3-5.2-2.9-8.2v-61.2c-0.1-3,0.9-5.9,2.9-8.2c1.8-2,4.4-3.1,7.1-3.1c2.3-0.1,4.5,0.7,6.3,2.2
			C776.1,95.9,777.3,98,777.7,100.3z"/>
	</g>
</g>
</svg>
