<svg xmlns="http://www.w3.org/2000/svg" xmlns:xlink="http://www.w3.org/1999/xlink" viewBox="0 0 86.5 82.64"><defs><style>.cls-1{fill:none;}.cls-2{clip-path:url(#clip-path);}.cls-3{fill:#0460fa;}.cls-4{fill:#ff2500;}.cls-5{fill:#ffbb23;}</style><clipPath id="clip-path" transform="translate(-0.45 -0.77)"><rect class="cls-1" x="2.05" y="-0.91" width="82.89" height="85.88" transform="translate(0.88 84.95) rotate(-89.22)"/></clipPath></defs><g id="Layer_2" data-name="Layer 2"><g id="Layer_1-2" data-name="Layer 1"><g class="cls-2"><path class="cls-3" d="M1.19,18.27A49.86,49.86,0,0,0,2.44,24.9,3.51,3.51,0,0,0,4,25.13a3.37,3.37,0,0,0,1.55-.19A47.89,47.89,0,0,0,7,18.25c.12-1.14.34-2.27.36-3.3,0-.83.1-.41.11-.62l.1-.1.11-.1c.1,0-.21-.11.62-.1l3.3-.26a51.3,51.3,0,0,0,6.73-1.25A3.57,3.57,0,0,0,18.53,11a3.22,3.22,0,0,0-.19-1.55A47.89,47.89,0,0,0,11.65,8l-3.3-.36a5.88,5.88,0,0,0-2.68.28,6.45,6.45,0,0,0-4.4,4.38,5.46,5.46,0,0,0-.34,2.57C1,16,1.1,17.14,1.19,18.27Z" transform="translate(-0.45 -0.77)"/><path class="cls-3" d="M.74,74.12a6.58,6.58,0,0,0,7,4.64l3.3-.27a51.3,51.3,0,0,0,6.73-1.25,5.79,5.79,0,0,0,0-3.09,47.91,47.91,0,0,0-6.69-1.44c-1.13-.12-2.27-.34-3.3-.35-.72.09-.41,0-.51,0l-.11-.1-.1-.11c0-.1-.1.21-.09-.62-.09-1.14-.18-2.27-.37-3.31a48.11,48.11,0,0,0-1.15-6.72,3.54,3.54,0,0,0-1.54-.23,3.41,3.41,0,0,0-1.55.18A48.22,48.22,0,0,0,.92,68.13C.8,69.27.69,70.4.57,71.43A4.71,4.71,0,0,0,.74,74.12Z" transform="translate(-0.45 -0.77)"/><path class="cls-3" d="M85.76,69.19a49.7,49.7,0,0,0-1.25-6.73A3.29,3.29,0,0,0,83,62.23a3.19,3.19,0,0,0-1.55.19A49.39,49.39,0,0,0,80,69.11c-.11,1.13-.34,2.26-.35,3.3,0,.82-.11.41-.11.61l-.11.11-.1.1c-.1,0,.2.1-.62.09l-3.31.27a51.61,51.61,0,0,0-6.73,1.25,3.79,3.79,0,0,0-.22,1.54,3.41,3.41,0,0,0,.18,1.55,48.22,48.22,0,0,0,6.69,1.44l3.3.35a5.77,5.77,0,0,0,2.69-.27A6.56,6.56,0,0,0,84,77.83a6.47,6.47,0,0,0,1.68-2.66A7.63,7.63,0,0,0,86,72.49,18.19,18.19,0,0,0,85.76,69.19Z" transform="translate(-0.45 -0.77)"/><path class="cls-3" d="M84.91,10.54a6.39,6.39,0,0,0-2.66-1.69,7.63,7.63,0,0,0-2.68-.35l-3.31.27A49.85,49.85,0,0,0,69.54,10a3.19,3.19,0,0,0-.23,1.54,3.19,3.19,0,0,0,.19,1.55,47.61,47.61,0,0,0,6.69,1.44c1.13.12,2.26.34,3.29.35.83,0,.42.11.62.11l.1.11.11.1c0,.11.1-.2.09.62.09,1.14.18,2.28.27,3.31a50,50,0,0,0,1.25,6.73,5.62,5.62,0,0,0,3.2,0,49.37,49.37,0,0,0,1.43-6.69l.35-3.3a5.77,5.77,0,0,0-.27-2.69A10.89,10.89,0,0,0,84.91,10.54Z" transform="translate(-0.45 -0.77)"/><path class="cls-4" d="M72,41.33c0-.41-.71-.83-1.54-.84s-1.55.28-1.55.7v.1a25.4,25.4,0,0,1-8.79,16.09,24.78,24.78,0,0,1-33-.55A25.76,25.76,0,0,1,18.85,40.4c-.1-.41-.82-.73-1.64-.74s-1.55.28-1.56.8v.1A27.67,27.67,0,0,0,23.11,61a28.26,28.26,0,0,0,17.74,8.92,19.74,19.74,0,0,0,.85,13.33,3.87,3.87,0,0,0,1.55.12,7.36,7.36,0,0,0,1.55-.08A19.71,19.71,0,0,0,46,70a28.55,28.55,0,0,0,18.08-8.43A27.17,27.17,0,0,0,72,41.33Z" transform="translate(-0.45 -0.77)"/><path class="cls-5" d="M43.59,51v.21a1.34,1.34,0,0,1-1.25,1.22A12.63,12.63,0,0,1,30.71,41.6c-.19-1.35-.18-2.59-.26-3.93l-.16-3.62-.11-7.22-.1-7.23c.13-2.48-.35-4.55.31-8A14,14,0,0,1,41.06,1.06,14.2,14.2,0,0,1,57.74,11.92,15.12,15.12,0,0,1,58,16.26l-.15,3.61-.3,7.22-.31,7.33L57.08,38c-.12,1.24,0,2.27-.26,3.92a12.62,12.62,0,0,1-4.13,7.48A11.67,11.67,0,0,1,45,52.53H44.8v.11a1.36,1.36,0,0,1-1.22-1.36Zm0,0c0-.83.43-1.54.95-1.54a9,9,0,0,0,7.54-8.05c.11-.82-.08-2.07-.06-3.3L52,34.45l-.11-7.33-.11-7.23a55.51,55.51,0,0,0-.22-6.5,7.61,7.61,0,0,0-14.76-.31c-.43,1.34-.26,4.13-.5,6.5L36,26.8,35.26,41a9.54,9.54,0,0,0,7.21,8.56h.1C43.19,49.4,43.6,50.13,43.59,51Z" transform="translate(-0.45 -0.77)"/><path class="cls-5" d="M52,38c0,1.24.07,2.48.06,3.31a9,9,0,0,1-7.54,8,1.56,1.56,0,0,0-.95,1.54c0-.83-.4-1.56-.91-1.36h-.11a9.65,9.65,0,0,1-7.21-8.56l.71-14.24.31-7.22c.13-2.38.07-5.16.5-6.5a7.6,7.6,0,0,1,14.75.3c.4,1.35.15,4.24.23,6.51L52,27l.11,7.33Z" transform="translate(-0.45 -0.77)"/></g></g></g></svg>