<?xml version="1.0" encoding="utf-8"?>
<!-- Generator: Adobe Illustrator 24.2.0, SVG Export Plug-In . SVG Version: 6.00 Build 0)  -->
<svg version="1.1" id="Layer_1" xmlns="http://www.w3.org/2000/svg" xmlns:xlink="http://www.w3.org/1999/xlink" x="0px" y="0px"
	 viewBox="0 0 993 899.8" style="enable-background:new 0 0 993 899.8;" xml:space="preserve">
<style type="text/css">
	.st0{fill:#FFBE26;}
	.st1{fill:#8461E1;}
	.st2{fill:#FF2500;}
	.st3{fill:#D4CFFC;}
	.st4{fill:#FFE19A;}
	.st5{fill:#40E08F;}
	.st6{fill:#92BDFE;}
	.st7{fill:#FF820F;}
	.st8{fill:#A95BE8;}
	.st9{fill:#FFFFFF;}
	.st10{fill:#FEFDFE;}
	.st11{fill:#FE4A81;}
	.st12{fill:#FA1C4B;}
	.st13{fill:#3259F8;}
	.st14{fill:#FFF7E0;}
	.st15{fill:#383C73;}
</style>
<g id="Livello_2">
	<g id="Livello_1-2">
		<path class="st0" d="M901.3,646.9c-23.5,21.7-152.7,53.8-217.5,97c-75.8,50.6-97.8,59.2-168.8,91.1
			c-64.2,28.9-164.9,18-202.4-34.8c-23-32.4-1.5-51.9-21.8-174.1c-12-72.5-24.9-52-40.4-60c-25.5-13-54.4-24.6-90.1-46.7
			c-36-22.3-27-65.1-23.9-100.1c0.8-14.8-1.4-29.6-6.5-43.6C113.2,331.6,73,334.3,36.3,291C31.5,285.4-8,237.5,1.5,188.8
			c8.5-43.4,52.1-68.4,74-80.5c513.7-285,746.4-95.8,746.4-95.8C1098.7,237.6,973.3,580.6,901.3,646.9z"/>
		<path class="st1" d="M568.1,629.9L568.1,629.9c0.2,0.1,0.5,0,0.8,0C568.6,630,568.4,630,568.1,629.9z"/>
		<path class="st2" d="M430.3,660.1c-5.5-0.9-10.9-2.4-16.1-4.5c-0.2-17.8-2.2-35.5-3.3-53.2c-1.7-27.5-3.3-55.1-4.8-82.6
			c-0.1-2.9-0.9-5.8-2.2-8.5c-0.8-1.6-2-3.4-4.1-2.9c-1.9,0.5-1.2,2.5-1.2,3.9c0,25.7,0,51.3,0,77c0,2.4,0.4,4.7,2.2,6.3
			c4.1,3.6,5.5,8.1,5.4,13.4c-0.2,14.3-0.1,28.7-0.1,43c-9.5-2.7-17.8-7.8-26.3-12.5c-15.6-8.7-28.2-20.8-40.2-33.7
			c-0.8-12.6-2.3-14.1-15.1-13.9c-14.4,0.2-28.9,0.5-43.3,0.8c-1.5-3.3-3.9-5-7.8-4.7c-4.1,0.3-8.3-0.1-12.5,0.1
			c-3.5,0.2-6.6,1.2-6.9,5.5c-12-1-23.9-0.2-35.8,0.6c-5.4,0.4-8.9,4.8-9.9,10.5c-1.8,9.8-3.8,19.6-5.4,29.4
			c-2.4,14.6-5.5,29.1-6.8,43.8c-0.9,10.4,4.4,15.9,14.8,15.9c21.8,0,43.6,0,65.4,0.1c1.5,0,4.3-1.6,4.6,1.9
			c-2.5,3.7-4.7,7.7-7.4,11.2c-2.5,3.2-1.2,5.1,1.4,6.9c8,5.6,17,8.8,26.2,11.8c4.9,1.6,9.8,2.8,14.7,4.2c-0.9,0.4-1.8,0.6-2.8,0.8
			c-14.2,1.7-28.6,1.9-42.9,2c-25.3,0.1-50.6,0-76,0.1c-18.3-3.2-26.6-18-26.2-33.9c1.1-42.6,8.3-84.8,21.4-125.4
			c0.8-2.4,1.4-4.8,2-7.2c0.2-0.5,0.4-1,0.6-1.5c0.3-0.2,0.4-0.4,0.4-0.8c1.8,0.4,3.6,0.6,5.4,0.8c42.2,0,84.5,0,126.7,0
			c10.3,0,19.6-7.4,21.5-16.8c2.2-11.2,4.3-22.5,6-33.8c2.2-14.6,13.4-24.3,28.2-24c0,19.5,0,38.9-0.1,58.4
			c0,11.3,1.5,22.7-5.6,32.9c-1.7,2.4-0.5,4.7,3.2,4.6c4.1-0.2,8.3-0.1,12.5,0c3.2,0,4.4-0.3,2.9-4.3c-2.4-6-4.7-12.2-4.7-18.8
			c-0.1-21.8,0-43.6-0.1-65.3c0-0.4,0-0.7,0.1-1.1c0-0.1,0-0.3,0.1-0.4c0-0.2,0.1-0.4,0.1-0.6l0.1-0.5c0.1-0.5,0.2-0.9,0.3-1.4
			c0-0.2,0-0.3,0.1-0.5s0-0.4,0-0.6c0-0.2,0-0.4,0-0.6c0-0.2,0-0.4-0.1-0.6c0-0.1,0-0.2-0.1-0.3c0-0.1-0.1-0.3-0.1-0.4
			c-0.1-0.1-0.1-0.3-0.2-0.4l9.8-0.2c6.5,2.5,13.7,3.4,18.3,9.7c3.1,4.1,5.1,8.4,5.5,13.4c1.7,22.8,2.8,45.7,4.4,68.5
			c1.7,23,2.9,46,4.4,69C431.2,653.6,434.1,657.2,430.3,660.1z"/>
		<path class="st3" d="M467.4,739.9L467.4,739.9c0.1,0.7,0.2,1.3,0.3,2C467.6,741.2,467.5,740.5,467.4,739.9z"/>
		<path class="st4" d="M817.3,760.6c-3.7-5.5-7.5-11-11-16.6c-1.5-2.5-3.5-3.1-6.2-3.2c-12.1-0.3-24.2-0.1-36.4-0.7
			c-15.1-0.7-30.2-0.7-45.3-1.4c-4.3-0.3-8.6-0.8-12.8-1.7c-17.6-3.4-33.6-11.2-50.4-17.2c-19.2-6.9-38.5-13.6-59.4-13.2
			c-24.8,0.5-44.5,10.5-59.2,30.4c-2,2.7-2.7,2.8-4.9,0.1c-10.9-13.5-24.6-21.2-42.5-19.4c-11.1,1.1-21.8,3.8-32.5,6.9
			c-25.7,7.6-51.9,12.3-78.8,12c-8.1-0.1-16.3-0.5-24.4-1.1c-4-0.2-7.9-1-11.8-1.6c-8.6-1.4-17.3-2.9-25.9-4.3
			c-0.9,0.4-1.8,0.6-2.8,0.8c-14.2,1.7-28.6,1.9-42.9,2c-25.3,0.1-50.6,0-76,0.1c1.6,1.8,3.8,1,5.7,1c21.6,0,43.3,0,65,0
			c1.3,0,3-0.6,3.7,0.6c0.9,1.5-0.6,2.7-1.4,3.9c-4.8,7.2-9.6,14.3-14.3,21.6c-0.8,1.3-2.9,2.5-1.8,4.2c0.8,1.3,2.8,0.6,4.2,0.6
			c32.3,0,64.6,0,96.9,0c2.7-0.1,5.3,0.2,7.8,1c0.8-1.1,2-1,3.2-1l56.9,0.1l1.9-0.6c0.2-5,0.4-10,0.6-15c-12.6,1-25.1,2.2-37.7,3
			c-35.2,2.3-70.5,1.9-105.8,0.2c-1.3-0.1-3.1,0.6-3.9-1.4c1.5-1.8,3.4-0.8,5.1-0.8c45.9,1.8,91.8,2.2,137.6-3.3
			c17.9-2,35.5-5.6,52.6-10.9c15-4.7,29.6-3.7,43.5,3.9c1.5,0.8,3.5,1.2,4.2,4.6c-10.5-6.1-21-9.3-31.8-9c-0.4,0-0.7,0-1.1,0
			c-0.1,0-0.2,0-0.4,0c-0.3,0-0.6,0-1,0.1l0,0l-1.6,0.2c-0.5,0.1-1.1,0.1-1.7,0.2c-1.1,0.2-2.2,0.4-3.3,0.6c-0.3,0-0.6,0.1-0.8,0.2
			c-0.5,0.1-0.9,0.2-1.4,0.3s-1.1,0.3-1.7,0.5l-0.3,0.1l-0.7,0.2c-1.7,0.6-3.5,1.2-5.1,1.9l0,0c0.1,0.7,0.2,1.3,0.3,2
			c0.1,0.6,0.1,1.1,0.1,1.7c0.3,5.3-0.9,10.7-1,16c0,3.9,1.2,5.2,5.1,5.2c7.4,0,14.9-0.6,22.2,0.3c2.1,0.2,3.2-1,4.3-2.7
			c4.3-6.8,10.7-9.6,18.5-9.6c11.5,0,22.9,0.1,34.4,0c8.6-0.1,15.6,2.7,20.1,10.4c0.5,1.1,1.5,1.8,2.7,1.9c12.3-0.8,24.7-0.2,37-0.3
			c0.6,0,1.1,0.5,1.7,0.8c2.4-1,4.9-0.9,7.4-0.9h186.9c2.7,0,5.3,0,8,0c1.1,0,2.6,0.5,3.2-0.6C819.3,762.8,818.1,761.6,817.3,760.6z
			 M654.2,752.8c-0.2,0.8-0.9,0.8-1.5,0.5c-1.2-0.6-2.4-1.2-3.6-1.8c-19.5-9.3-40-13.1-61.5-10c-1,0.1-2,0.2-3,0.2
			c-0.2,0-0.5-0.4-1.7-1.5c6.8-1.7,13.9-2.4,20.9-2.2c16.3,0.4,32.4,4.4,47,11.8c1,0.5,2,1.1,3,1.7
			C654.2,751.9,654.3,752.3,654.2,752.8L654.2,752.8z M788.6,753.9c-26.3-0.4-52.6-0.9-79-1.2c-14-0.2-26-6.5-38.4-11.6
			c-15.8-6.6-32.1-12.1-48.7-16.6c-22.6-6-43.2-1.4-62.3,11.3c-1.5,1-2.6,2.5-5.6,2.7c2.2-3.9,5.4-5.3,8.2-7
			c19.2-11.6,39.5-14.9,61.4-9c20.4,5.6,40.3,12.8,59.6,21.5c9.4,4.2,19.7,6.4,30,6.5c24.5,0.3,49,0.8,73.5,1.3
			c1.5,0,3.2-0.4,4.7,0.9C791.2,754.5,789.7,753.9,788.6,753.9z"/>
		<path class="st5" d="M398.4,478.3c0,3.8,0,7.6,0,11.4l-9.8,0.2l0,0h-8.1c-14.9-0.3-26,9.4-28.2,24c-1.7,11.3-3.8,22.6-6,33.8
			c-1.8,9.4-11.1,16.8-21.5,16.8c-42.2,0.1-84.5,0.1-126.7,0c-1.8-0.1-3.6-0.4-5.4-0.8c-5.9-4.5-7.3-8.3-4.5-14.8
			c6.1-13.8,12.3-27.5,18.7-41.2c3.7-8,6.8-16.2,11.6-23.7c1.9-2.9-1.6-2.1-2.1-3.3c5.4,1.1,7.9-3.6,11.2-6.2
			c7.2-5.7,16.1-8.9,25.3-9l17.4-0.4h6.2c9.8,0.1,19.6,0.4,29.4,0.3c15.3,0,30.6-0.2,45.9-0.3h6.3c9.2,0.9,18.5,0.2,27.8,0.4
			C394.2,465.9,398.3,470,398.4,478.3z"/>
		<path class="st6" d="M339.6,605.7c-5.8,6.6-10.1,14.2-14.9,21.5c-12.5,19.1-24.8,38.4-37.1,57.7c-2.3,3.6-4.4,7.2-6.7,10.9
			c-0.3-3.5-3.1-1.9-4.6-1.9c-21.8-0.1-43.6-0.1-65.4-0.1c-10.4,0-15.7-5.5-14.8-15.9c1.2-14.8,4.3-29.2,6.8-43.8
			c1.6-9.8,3.6-19.6,5.4-29.4c1.1-5.6,4.5-10.1,9.9-10.5c11.9-0.8,23.9-1.7,35.8-0.6c-2.1,12.7-4.1,25.5-6.2,38.2
			c-2.4,1.1-6-0.7-7.4,2.8c-4.1,10,3.6,22.2,14.5,23c12.7,0.9,19.9-4.3,24.6-17.6c1.8-5.1,1-6.6-4.2-8.3c2-13,4-26.1,5.9-39.1
			c14.4-0.2,28.9-0.6,43.3-0.8C337.2,591.6,338.7,593.1,339.6,605.7z"/>
		<path class="st2" d="M833,769.7c0,2.6-2.8,1.6-4.5,1.6c-73.1,0-146.2,0.1-219.3,0.1c-2.6,0-5.3-0.4-7.9,0.7l-18.4-0.3
			c-2.8,0-4.4,1.3-4.6,4.1c-0.3,3.3-2.1,6-3.8,8.6c-7.6,8.6-18,8.7-28.2,9.5c-11-0.1-21.9,0-32.9-0.4c-9.6-0.3-17.5-5.3-20.5-13.6
			c-2.9-7.9-7.2-9-14-8.3c-2.1,0.2-4.3,0-6.5,0c-6.1,0-7.4,1.1-5.7,6.9c1.5,4.9,1,9.8,1.5,14.7c0.3,3.3-0.4,6.6,0.8,9.8
			c1,9,3.2,17.9,5.8,28c-9.1-7.2-17.3-13.3-25.1-19.9c-3.6-3-5.2-2.3-7.4,1.3c-3.6,6.1-7.6,11.9-12.2,18.9c-3-11.6-5-23.4-6-35.3
			c-0.8-7.1-2.2-14.2-1.7-21.5c0.1-2.1-1.2-2.8-3.1-2.8c-15.9,0.1-31.8,0.2-47.7,0.3c-2.7-1-5.6-0.6-8.4-0.6
			c-38.8,0-77.6,0-116.5-0.1c-1.9,0-5.5,1.2-5.5-1.4c0-3.1,3.7-1.7,5.6-1.7c36.7-0.1,73.3-0.1,110-0.1c2.1,0,4.3-0.3,6.4-0.5
			c18.4,0.1,36.8,0.1,55.2,0.2c2.5,0,4.3-0.5,3.7-3.6c0.2-5,0.4-10,0.6-15c14.8-2.1,29.5-5.1,44-8.8c-0.1,7.7-0.2,15.3-0.2,22.9
			c0,2.2-0.2,4.5,3.1,4.4c7.5-0.2,14.9,0.5,22.4-0.4c1.8,0.4,2.1,1.6,2.4,3.2c1.8,12,8.8,18.2,21,18.2c13.2,0.1,26.3,0.1,39.5,0
			c11.4,0,18.7-6.3,20.5-17.6c0.3-2,0.6-3.6,2.9-3.9c10.5,0.9,21.1,0.3,31.7,0.3c3.8,0.9,7.6,0.4,11.4,0.4c68.6,0,137.2,0,205.9,0
			c0.5-0.1,1-0.1,1.5,0C830.2,768.5,833,767.1,833,769.7z"/>
		<path class="st7" d="M414.2,655.6c-2.8-0.9-6-1-8.1-3.6c0-14.3-0.1-28.7,0.1-43c0.1-5.3-1.4-9.8-5.4-13.4
			c-1.8-1.6-2.2-3.9-2.2-6.3c0-25.7,0-51.3,0-77c0-1.4-0.7-3.4,1.2-3.9c2.1-0.5,3.4,1.3,4.1,2.9c1.3,2.7,2,5.5,2.2,8.5
			c1.5,27.5,3.1,55.1,4.8,82.6C412,620.1,414,637.8,414.2,655.6z"/>
		<path class="st0" d="M546.2,793.9c-11.9,4-24.3,5.5-36.7,6.9c-11.9,1.3-23.8,1-35.8,0.9c-1.7,0-3.8-0.9-4.8,1.4
			c-1.2-3.2-0.5-6.5-0.8-9.8c-0.5-4.9,0-9.8-1.5-14.7c-1.7-5.8-0.4-6.9,5.7-6.9c2.2,0,4.4,0.2,6.5,0c6.8-0.7,11.1,0.3,14,8.3
			c3,8.3,10.9,13.4,20.5,13.6C524.3,793.9,535.3,793.9,546.2,793.9z"/>
		<path class="st0" d="M424,796c-0.9-2.4-3-2.7-5-3.3c-16-4.7-31.6-10.7-46-19.2c-0.5-0.3-1.8-0.2-1.5-1.5
			c15.9-0.1,31.8-0.2,47.7-0.3c2,0,3.3,0.7,3.1,2.8C421.8,781.8,423.2,788.9,424,796z"/>
		<path class="st7" d="M601.3,772c-8.1,5.8-17.2,10-26.8,12.4c1.7-2.7,3.5-5.3,3.8-8.6c0.2-2.8,1.8-4.1,4.6-4.1L601.3,772z"/>
		<path class="st8" d="M418.3,767.9c-18.4-0.1-36.8-0.2-55.2-0.2l-1.9-1.6c17.8-0.1,35.5-0.2,53.2-0.3c1.9,0,4,0.8,5.7-0.9l1.9-0.6
			C422.6,767.4,420.8,767.9,418.3,767.9z"/>
		<path class="st9" d="M613,765.6l-3.2,2.1c-10.6,0-21.1,0.6-31.7-0.3c-0.1-2.8-3-0.8-3.8-2.3c12.3-0.8,24.7-0.2,37-0.3
			C611.9,764.8,612.4,765.3,613,765.6z"/>
		<path class="st9" d="M420.1,764.9c-1.7,1.7-3.8,0.9-5.7,0.9c-17.8,0.2-35.5,0.2-53.2,0.3l-1.1-0.3c0.8-1.1,2-1,3.2-1L420.1,764.9z
			"/>
		<path class="st10" d="M672.9,270.5c-0.8-2.1-3.1-2.3-5.1-2.5c-6.3-0.4-12.5,0-18.7,1.2c-1.6,0.3-3.3,0.4-4.9,0.5
			c-13.4,3-26.9,5.8-40.3,8.9c-4.6,1.1-9.2,2.2-13.8,3.4l-9.2,2.4l-4.6,1.2l-9.2,2.4c0.5,1.9,0.2,4.2,2.8,5c15.5-5,31.2-9,47.7-9.3
			c1.6,0,3.6-0.4,4.4,1.5c0.8,2.1-0.8,3.5-2.2,4.6c-9.5,7.8-20.5,13-31.4,18.3c-4,2-8.2,3.7-12.2,5.6c-20,9.1-40.4,17.1-61,24.4
			c-1.3,1.2-3.1,1.8-4.8,1.8l-0.1,0.1c-3,1.9-6.4,3.2-10,3.8l-1,0.3c-18.6,7.4-37.8,13.2-57,18.9c-8.9,2.6-17.7,5.6-26.9,7.2
			c-11,3.3-22.3,5.4-33.7,6.5c-2.9,0.3-6.9,1-8-2c-1.2-3.2,2.7-4.9,5-6.6c8.9-6.2,18.4-11.4,28.3-15.6c0-1.5,0-3,0-4.5
			c-1.2-0.1-2.3,0.2-3.3,0.8c-19.1,9.3-38.2,18.6-56.8,29.1c-9.1,5.2-18.2,10.4-26.2,17.3c-1.6,1.4-3.7,2.9-2.7,5.4s3.5,2.2,5.5,2.7
			c0.8,0.1,1.7,0.2,2.5,0.1c10.9-0.8,21.8-2.3,32.5-4.4c21.1-4,41.8-9.4,62.7-14c11-3.1,22.1-6.1,33-9.4c23.3-7,46.3-14.6,69-23.3
			c1.8-0.7,3.6-1.8,5.7-1.5l38-15.9l11-4.6c29-14.1,58.2-27.9,84.7-46.5c2.7-2.6,5.5-5.2,8.1-7.9
			C672.3,274.4,673.7,272.6,672.9,270.5z M345.2,392.4l46.3-9.2C376.3,387.5,361,391.2,345.2,392.4z M521.5,344.4
			c-0.4,0.1-0.9,0.2-1.3,0.3c-0.4-1.2,0.7-1.2,1.1-1.4s1.1-0.1,2.5-0.2C523,343.5,522.2,344,521.5,344.4L521.5,344.4z M525,343
			l-0.4-1.1l20.8-8.2l0.4,1.1L525,343z M547.7,333.6c-0.1,0-0.2-0.2-0.4-0.3c0.1-0.1,0.3-0.3,0.4-0.3s0.2,0.2,0.4,0.3
			C548,333.5,547.8,333.6,547.7,333.6L547.7,333.6z M549.9,332.4c2.3-2,5-2.8,9.1-3.9C555.6,331.3,552.7,331.8,549.9,332.4
			L549.9,332.4z M559.7,328.6c-0.1,0-0.2-0.2-0.3-0.3l0.3-0.2l0.3,0.3C559.9,328.5,559.8,328.6,559.7,328.6L559.7,328.6z
			 M572.2,322.9c-2.9,2.9-6.8,3.7-10.5,4.6C564.9,325.3,568.5,323.8,572.2,322.9c2.5-1.9,5.5-3.1,8.7-3.6
			C578.3,321.1,575.6,322.8,572.2,322.9z M581.5,318.7c3.1-2,5.4-3.3,9.2-3.7C587.5,317,585.3,318.3,581.5,318.7z M591.7,314.7
			c-0.1,0-0.2-0.2-0.3-0.3l0.4-0.3l0.3,0.4C592,314.5,591.8,314.7,591.7,314.7z M621.4,300.1L621.4,300.1c-0.5,0.6-1.1,1.1-1.8,1.5
			l-0.6,0.4c-0.4,0.3-0.9,0.5-1.3,0.7c-0.3,0.2-0.7,0.3-1,0.5c-1.1,0.4-2.2,0.8-3.3,1c-2.8,2.4-6.1,4-9.6,4.8
			c-3.1,2.1-6.7,3.5-10.5,4.1l10-4.9c2.8-2.2,6.1-3.7,9.6-4.5c2.1-2.2,5-3.6,8-4c0.3-0.4,0.6-0.8,1-0.2
			C622,299.5,621.6,299.9,621.4,300.1z M633.8,293c-0.5,1-1.5,0.9-2.4,1.1l-1,1c-1.8,2.1-4.2,2.8-6.7,3.4c1.3-2.6,3.6-3.5,6.2-3.8
			l1-1l0,0l0.3-0.4c0.1-0.1,0.2-0.3,0.3-0.4c0.1-0.2,0.3-0.3,0.5-0.4c0.2-0.1,0.4-0.2,0.6-0.2c0.1,0,0.2,0,0.3,0
			c0.2,0,0.4,0,0.6,0.1C633.8,292.3,633.9,292.8,633.8,293L633.8,293z M636.1,291.8c-0.2-0.2-0.4-0.5-0.6-0.8
			c0.3-0.3,0.6-0.6,0.9-0.8c0.2,0.2,0.5,0.5,0.5,0.6C636.6,291.2,636.4,291.5,636.1,291.8L636.1,291.8z M643.4,286.1l-1,1l-2,1l-1,1
			c-0.3,0.3-0.5,0.8-1,0.2c0-0.1,0.3-0.4,0.5-0.6l1-1l2-1l1-1c0.3-0.3,0.5-0.8,0.9-0.2C643.9,285.5,643.6,285.9,643.4,286.1
			L643.4,286.1z"/>
		<path class="st11" d="M508.1,316.8c-6.5,4.6-13.4,8.1-21.7,7.2c-2.5-0.2-5.1-0.5-7.9,0.5c1.6,2,3.4,1.1,4.9,1.3
			c1.2,0.2,2.5,0.1,2.7,1.6c0.4,4.5,3.5,8.7,1.6,13.6c-1,2.5,0.1,3.6,3.1,3.1c2.8-0.3,5.6-0.4,8.4-0.2c-18.6,7.4-37.8,13.2-57,18.9
			c-8.9,2.6-17.7,5.6-26.9,7.2c-1.4-0.9-2.5-2.2-3.1-3.7c-1.6-4.7-3.5-9.3-5.2-13.9c0-1.5,0-3,0-4.5c-0.5-3.2-1.1-6.4-1.6-9.5
			c1.2-1.4,0.8-3.2,0.6-4.8c-0.5-5.1-0.1-8.8,6.7-8.1c2.4,0.2,5.2-0.7,7.9-0.7c2.4,0,3.9-1,4.9-3.4c3.2-7.4,8.7-11.9,16.8-13.2
			c4-0.6,8-0.1,11.9-0.5c1.8-0.2,3.8-0.6,3.9-3c0.1-3.8-2.8-5.8-5.1-8.1c-1.7-1.6-2.6-0.1-3.6,1c-3,3.5-6.6,4.3-10.7,2
			c-4.3-2.5-4.5-6.4-2.8-10.4c1.4-3.4-0.2-4.4-3-5.3c-3.9-1.2-7.9-1-11.9-1.2c2.9-4.5,6.3-8.8,10-12.7l1-1
			c6.9-6.9,15.4-12.2,24.7-15.3c3.8,0.8,7.1-1.5,10.3-2.6c3.8-1.3,3,0.5,3,2.4c0,12.1,0,24.2,0,36.3c-0.2,1.3-0.1,2.7,0.3,4
			c1.2,3,0.3,4.8-2.6,5.9c-1.1,0.4-2,1-1.3,2.1s1.8,0.3,2.6-0.1c0.7-0.4,1.4-0.9,2.1-1.4c7.6-4.8,12.8-12,19.1-18.1
			c2.3-2.2,4.5-4.6,8.4-4.6c8.8,0,12.6,5.6,15.7,12.7C517.9,298.6,515.1,311.9,508.1,316.8z"/>
		<path class="st7" d="M607.4,553.7c-4.5-1.7-122.3-51.3-132.5-53.8c-1-0.2-2.1-1.6-3.2-0.5s0.2,2.1,0.5,3.2
			c1.9,6.2,83.9,144.3,85.2,144.3c2.4-3,47.4-80.9,51.5-89C610.1,555.4,610,554.7,607.4,553.7z M576.6,569.4
			c-5.9,11.5-11.9,23-18.1,34.3c-1.7,3.1-2.9,2.5-4.3,0c-8-13.9-16-27.8-24.1-41.6c-2.9-5-6.1-9.9-9.1-14.8c-2-3.3-1.2-5.6,2.7-5.6
			c3.3,1.3,7.5,2.8,11.5,4.6c13.1,5.8,26.1,11.7,39.1,17.5C576.9,564.9,578.5,565.9,576.6,569.4z"/>
		<path class="st12" d="M658.2,394.5L658.2,394.5c-0.1-0.1-0.1-0.2-0.2-0.2c-0.3,0.1-0.5,0.1-0.8,0.2l0,0c0.9,3,2.6,3.6,4.6,3.4
			C660.3,397.9,659,397.1,658.2,394.5z M632.1,393.8c-2.6,0.2-5.8,0-5.9,3.8c-0.1,3,1.8,4.5,5.3,4.4h0.2c-3-0.1-4.6-1.6-4.6-4.4
			c0.1-3.8,3.2-3.6,5.9-3.8h0.3C633,393.7,632.6,393.7,632.1,393.8z"/>
		<path class="st2" d="M703.4,409.7c-2-4.2-5.2-6.8-8.4-9.7l-1.8-0.4c-4.4-1.9-9.1-2.3-13.9-2.3c-4.3,0-8.6,0.1-12.8,0.1
			c-1.5,0.3-3.1,0.5-4.7,0.5c-2,0.1-3.8-0.4-4.6-3.4l0,0c0.2-0.1,0.5-0.2,0.8-0.2c0-0.1-0.1-0.1-0.2-0.2c-0.1-0.1-0.3-0.3-0.4-0.4
			c-0.4-0.3-0.9-0.6-1.4-0.9l-0.5-0.2l-1-0.4c-1.4-0.5-2.7-1.1-4-1.9c-8.2-5.5-16.8-6.1-25.8-1.4c-12.8,6.6-17.7,18.1-19.3,31.4
			c-1.5,12.2,2.2,23,9.1,32.8l0.6,0.8l0,0c4.9,3.3,8.8,7.7,13.8,10.9c11.3,7.4,23.6,8.4,36.2,6.7c9.7-1.1,18.8-5.4,25.8-12.1
			c7.3-7.1,11.6-16,13.8-25.5C706.4,426,707.2,417.7,703.4,409.7z M638.1,397.3c-0.2,3.2-2.7,4.8-5.5,4.7h-1
			c-3.5,0.1-5.4-1.4-5.3-4.4c0.1-3.8,3.2-3.6,5.9-3.8c0.4,0,0.8,0,1.3,0C635.9,393.6,638.3,394.5,638.1,397.3z"/>
		<path class="st13" d="M573.4,362c-10.2,26.2-28.5,44.5-55.6,52.6c-34.2,10.2-63.9,1.4-89.3-23.2c-1-1.1-1.9-2.3-2.8-3.5
			c4.7-2.1,8.3,2,12.5,2.5c2,0.3,3,1.4,4.4-1.5c2.3-4.8,5.9-8.5,12.6-7.2c5.8,1.2,11.5-0.5,16.8-3.2c6.5-3.3,13.1-6.3,20.4-7.6
			s14.5-5.3,22.2-1.6c0.8,0.3,1.6,0.2,2.3-0.3c4.7-5.6,10.2-10.8,12.2-18.3l38-15.9l11-4.6C579.5,341.3,577.3,351.9,573.4,362z"/>
		<path class="st13" d="M576.2,313.7c-20,9.1-40.4,17.1-61,24.4c-1.8,0.1-4.2-1.4-4.8,1.8l-0.1,0.1c-3.8-0.6-7.5,0.9-10,3.8l-1,0.3
			c-2.8-0.1-5.6,0-8.4,0.2c-3,0.5-4-0.6-3.1-3.1c1.9-4.9-1.2-9.1-1.6-13.6c-0.1-1.5-1.5-1.5-2.7-1.6c-1.5-0.2-3.3,0.7-4.9-1.3
			c2.8-1.1,5.4-0.8,7.9-0.5c8.4,0.9,15.3-2.6,21.7-7.2c7-4.9,9.8-18.2,6.3-26.3c-3.1-7.1-6.9-12.6-15.7-12.7c-3.9,0-6.1,2.3-8.4,4.6
			c-6.3,6.1-11.5,13.3-19.1,18.1c-0.7,0.5-1.3,1-2.1,1.4c-0.8,0.4-1.9,1.4-2.6,0.1s0.2-1.7,1.3-2.1c2.9-1,3.8-2.9,2.6-5.9
			c-0.3-1.3-0.4-2.6-0.3-4c0-12.1,0-24.2,0-36.3c0-2,0.7-3.7-3-2.4c-3.2,1.1-6.5,3.4-10.3,2.6c8.1-5.1,17.3-7,26.5-7.7
			c33.9-2.5,61.2,9.7,80.8,38c0.9,1.3,2.1,2.5,3.1,3.8l0,0c0.5,1.9,0.2,4.2,2.8,5c0.5,1.5,1,3.1,1.5,4.7
			C573.5,302.9,575.9,308,576.2,313.7z"/>
		<path class="st10" d="M305.4,279.9c-6.4-5.4-13.8-9.2-21.2-13.1c-7.5,13.2-15,26.3-22.5,39.5c-0.9,2-2.4,3.6-4.2,4.8
			c-5,2.9-10.1,5.9-15.1,8.8c-14.3,8.4-28.6,16.8-42.9,25.2c-4.4,2.5-5.8,8.2-1.5,12.3c3.8,3.7,8.8,4.4,13.1,6.9
			c20.4,11.7,40.9,23,61.3,34.7c4.2,2.4,6.8,0.5,9.2-2.4c1.5-1.9,1.4-4.4,1.3-6.7c-0.3-21.1-0.5-42.3-0.9-63.4
			c-0.1-3,0.7-5.9,2.2-8.5C291.5,305.3,298.4,292.6,305.4,279.9z M265.1,386c-17.1-9.5-34.2-19.1-51.3-28.7c-1.7-1-3.5-1.9-4.2-4
			c-0.7-1.9-0.2-4.1,1.2-5.5c1.3-1.3,2.6-1.5,4.5-0.7c16.8,7.4,32.7,5.2,48.1-4.1c3.2-2.1,6.7-3.7,10.3-4.8c1.2,1.5,1,3.2,1,4.9
			c0.1,12.3,0.3,24.6,0.4,37C275.1,387.7,271.7,389.7,265.1,386z"/>
		<path class="st14" d="M184.3,245.6l-23.1,14.1c-6-7.2-10-15.6-14.9-23.4c-13.7-21.9-27.2-44-40.8-66.1c-0.9-1.4-1.5-2.9-2.3-4.4
			l24.8-15.6c6.1,9.7,12.2,19.4,18.1,29.2c12.4,20.3,24.7,40.6,37,61C184.1,241.9,186.1,243.4,184.3,245.6z"/>
		<path class="st13" d="M458.2,304.8c-0.1,2.4-2.1,2.8-3.9,3c-4,0.4-7.9-0.1-11.9,0.5c-8.1,1.3-13.6,5.9-16.8,13.2
			c-1,2.4-2.5,3.4-4.9,3.4c-2.7,0-5.4,0.9-7.9,0.7c-6.9-0.7-7.2,3-6.7,8.1c0.1,1.6,0.6,3.3-0.6,4.8c-0.6-12.8,1.3-25.5,5.6-37.5
			c2.2-6.5,6.1-12.5,10.2-18.1c4,0.2,8,0,11.9,1.2c2.7,0.9,4.4,1.9,3,5.3c-1.7,4-1.5,7.9,2.8,10.4c4,2.4,7.6,1.5,10.7-2
			c1-1.1,1.9-2.6,3.6-1C455.5,299,458.3,301,458.2,304.8z"/>
		<path class="st11" d="M529,350.7c-1.9,7.5-7.4,12.7-12.2,18.3c-0.7,0.5-1.5,0.6-2.3,0.3c-7.7-3.7-14.9,0.3-22.2,1.6
			s-13.9,4.3-20.4,7.6c-5.3,2.7-11,4.4-16.8,3.2c-6.7-1.4-10.2,2.3-12.6,7.2c-1.4,2.9-2.4,1.8-4.4,1.5c-4.2-0.5-7.8-4.6-12.5-2.5
			l-4.5-2.9c11-3.1,22.1-6.1,33-9.4c23.3-7,46.3-14.6,69-23.3C525.2,351.6,526.9,350.5,529,350.7z"/>
		<path class="st12" d="M358.2,465.3h-6.3c-0.5-0.8-1-1.6-1.3-2.5c-2.1-7.9-6-11-13.9-11c-15,0-30,0-45,0c-2,0-3.9,0.3-5.8,0.9
			c-6.1,2.2-7.7,7.4-9.4,12.6h-6.2c-1.3-10.7,10-21.2,21.2-21.2c15.1,0,30.3,0.1,45.4,0C348.3,444.1,359.5,455.2,358.2,465.3z"/>
		<path class="st12" d="M128.1,150.2l-24.8,15.6c-3.2-3.9-5.3-8-5-13.3c0.6-7,5.7-12.9,12.6-14.4c5.7-1.1,12.8,2.6,15.3,8.2
			C126.8,147.7,128.5,148.4,128.1,150.2z"/>
		<path class="st4" d="M188.2,263.8c-4.2,2-8.1,4.4-11.8,7.2c-5-3.9-10.8-6.6-15.3-11.2l23.1-14.1c1,0.1,1.9,0.9,2,1.9
			C186.9,252.9,187.6,258.3,188.2,263.8z"/>
		<path class="st10" d="M315.8,274.1c-1.4,3.8-4.4,3.2-7.5,2c-0.3-0.1-0.7-0.1-1,0c-6.6-5.2-14-9-21.6-12.4
			c-2.2-2.2-4.4-4.9-1.8-7.7c2.2-2.4,5.2-1,7.8,0.4c6.7,3.8,13.3,7.6,20,11.3C314.3,269.2,317.1,270.6,315.8,274.1z"/>
		<path class="st15" d="M682.1,387c-0.6,4.9-4.5,4.5-7.9,5.1c-1.6-0.2-3.1,0.5-4,1.8l-0.1,0c-2.2,0.4-3.2,2.2-4.6,3.6
			c-1.2,0.1-2.5,0.4-3.7,0.5c-2,0.1-3.8-0.4-4.6-3.4l0,0c0.2-0.1,0.5-0.2,0.8-0.2l0.2-0.1c1-0.3,2-0.7,2.1-2.1l7.8-5.2l0,0
			C672.8,385.9,677.5,382.7,682.1,387z"/>
		<path class="st9" d="M667.6,243.8c-0.7,0.7-1.3,1.5-2.2,2.6c-1.1-1.5-1.8-2.6-2.7-3.6c-1.5-1.7-4.8-4.2-4.6-4.6
			c1.6-2.6,4-4.6,6.1-7c1.2-1.3,1.8-0.7,2.8,0.2C673.5,237.3,673.5,237.3,667.6,243.8z"/>
		<path class="st15" d="M190.2,280.5l-13.8-9.5c3.7-2.7,7.7-5.1,11.8-7.2c0.6,3.6,1.4,7.1,1.9,10.7
			C190.3,276.5,190.3,278.5,190.2,280.5z"/>
		<path class="st3" d="M307.3,276.1c-0.2,1.5-0.8,2.8-1.9,3.8c-6.4-5.4-13.8-9.2-21.2-13.1c0.1-1.2,0.6-2.3,1.5-3.1
			C293.4,267.1,300.7,270.9,307.3,276.1z"/>
		<path class="st9" d="M215.2,433.6c-1.7,2.4-3.6,5.7-6,5.6c-2.7-0.1-5.4-3-5.8-6s3.3-5.1,5.1-5.2
			C211.4,427.8,212.9,431.5,215.2,433.6z"/>
		<polygon class="st1" points="668.2,386.8 668.2,386.8 668.2,386.9 		"/>
		<path class="st9" d="M236.7,225.8c0.1,2.5-1.9,3.9-4.2,3.9c-2.8,0-4.2-1.8-4-4.5c0.1-2.5,1.6-3.8,4-4.1
			C234.8,221.3,236.7,223.4,236.7,225.8z"/>
		<path class="st1" d="M544.2,633.8L544.2,633.8L544.2,633.8z"/>
		<path class="st1" d="M544.2,633.8L544.2,633.8L544.2,633.8z"/>
		<path class="st10" d="M858.4,307.8c-0.2-1.5-2-1.4-3.2-1.9c-25.4-10.7-50.9-21.2-76.3-32.1c-16-6.8-32.2-13.1-48-20.3
			c-2.8-1.3-5.7-5.1-9.9-2.7c0,1.8,1.1,3.1,1.8,4.6c9.8,20.1,19.7,40.2,29.5,60.3c7.8,15.9,15.8,31.7,23.6,47.5
			c1.2,2.5,2.1,3.8,4.9,1.4c7.3-6.5,14.9-12.8,22.3-19.2c3.5-3.5,7.3-6.7,11.4-9.4c-9.1-9.7-19.4-18.1-29.1-27.1
			c-18.8-17.3-37.9-34.4-56.8-51.7c-0.9-0.9-1.8-1.9-2.6-2.9c-0.4-0.2-1.1-0.4-0.6-0.9s0.8,0,0.9,0.5c14.9,8,28.8,17.7,43.2,26.6
			c20.8,12.9,41.4,26,62.1,39c1.5,1,3.3,1.6,4,3.5l20-12.8C856.6,309.4,858.7,309.6,858.4,307.8z M723.7,252.5v-0.3l0.3,0.2
			L723.7,252.5z"/>
		<path class="st5" d="M865.8,598.6c-8.7-11.2-17.1-22.7-26.1-33.7c-6.4-7.8-13.2-15.3-18.3-24.1c-1.3-2.5-4.2-3.7-6.8-2.7
			c-5.4,1.7-11,3.1-16.6,4.2c-2,0.4-3.5,1.9-4,3.9c-2.1,6.8-2.8,13.8-3.6,20.8c-0.7,6-1.7,12.1-2.8,18c-2,10.6-2.9,21.3-5.5,30.6
			c0,2.7-0.1,4.2,0,5.7s0.9,2.8,2.6,2.1c5.2-2,10.7-2.8,16.1-4.1c3.3-0.8,5.5-2.6,5.7-7.1c0.3-7.7,2.5-8.8,10.5-10.6
			c3.6-0.8,7.4-1.4,10.9-2.8c5.5-2.2,7.4-1.4,10.7,3.8c2,3.2,4.4,6.5,9,4.9c5.3-1.8,10.7-3.2,16.2-4.1
			C866.4,602.9,867.9,601.3,865.8,598.6z M818.2,582.6c-6.5,2.7-8,1.8-7.8-4.9c0.1-3.8,0.3-7.6,2.9-11.4c3,3.8,6,7.2,8.4,11
			C823.7,580.7,820.8,581.5,818.2,582.6L818.2,582.6z"/>
		<path class="st13" d="M741.3,518.9c-1.5,6.2-6.7,9.8-10.5,14.2c-20.4,23.8-41.8,46.8-63.5,69.5c-10.3,10.8-21.3,21-32.2,31.3
			c-4.1,3.8-8.7,7.1-13.1,10.6c-1.2,1-2.7,1.9-4,0.9s-0.4-2.8,0-4.1c1.5-4.4,4.1-8.3,6.7-12.2c17-26.3,36.1-51,55.5-75.5
			c12-15.1,24.2-30,36.3-45c1.8-2.2,3.5-4.5,5.9-6l5.6,4.4C731.7,511.7,737,514.7,741.3,518.9z"/>
		<path class="st13" d="M835.6,322.9c-2.7,11-5.7,22-9.3,32.8c-0.4,1.2-0.5,2.3-2.1,2.2c-3.4-7.3-5.7-15.1-9.8-22.1
			c-9.1-9.7-19.4-18.1-29.1-27.1c-18.8-17.3-37.9-34.4-56.8-51.7c-0.9-0.9-1.8-1.9-2.6-2.9l0.3-0.4c14.9,8,28.8,17.7,43.2,26.6
			c20.8,12.9,41.4,26,62.1,39C833.1,320.3,834.9,321,835.6,322.9z"/>
		<path class="st6" d="M799.8,441.3c-1.1,0.8-2.2,1.5-3.3,2.2c-4.6,2.6-5.8,6.2-4.2,11.3c3.2,10-0.6,16.8-10.9,19.8
			c-1.8,0.5-3.6,0.8-5.3,1.2c-4.2-1.6-8.4-3-11.7-6.2c-1.5-2.1-2.7-4.5-3.5-6.9c-2.5-9,2.1-15.4,7.7-21.4s13-9.1,20.8-11.3
			c10.8-3.1,13.8-6,17.2-17.1C811.9,421.5,808.7,434.9,799.8,441.3z"/>
		<path class="st10" d="M776.1,475.9c-9.7,13.8-19.6,27.4-30.5,40.3c-1.2,1.4-2,3.1-4.3,2.8c-4.2-4.2-9.6-7.2-13.2-12
			c6-6.7,12-13.5,18.2-20c5.7-6.1,10.8-12.8,18.2-17.2C767.7,472.8,771.9,474.3,776.1,475.9z"/>
		<path class="st4" d="M764.4,469.7c-7.3,4.4-12.4,11.1-18.2,17.2c-6.2,6.6-12.1,13.3-18.2,20l-5.7-4.4c0.8-3,3.1-5.1,5-7.2
			c9.4-10.2,18.8-20.5,28.9-30.1c1.3-1.3,2.6-2.6,4.6-2.5C761.7,465.2,762.8,467.5,764.4,469.7z"/>
		<path class="st9" d="M893.1,402.6c-0.3,6.2-5.4,11.1-11.7,11.2c-6.2-0.1-11.2-5-11.2-10.9c0-7.2,4.1-11.1,11.6-11.1
			C888,391.9,893.3,396.9,893.1,402.6z"/>
		<path class="st3" d="M824.3,357.9c-1.2,1.4-2,0.1-2.9-0.5c-4.5-3.3-9-6.6-13.5-9.9c-1.5-1.1-2.9-2.1-4.9-2.2
			c3.5-3.5,7.3-6.6,11.4-9.4C818.5,342.9,820.9,350.6,824.3,357.9z"/>
		<path class="st10" d="M727.1,607.4c-3.3,0.3-4.7-2-4.7-5c-0.2-2.4,1.7-4.5,4.1-4.6c0.2,0,0.4,0,0.6,0c3.2-0.1,4.8,1.7,4.9,3.3
			C732.3,606.1,729.8,607.1,727.1,607.4z"/>
		<path class="st9" d="M844.1,162.3c0,2.3-1.8,4.2-4,4.2c-0.2,0-0.4,0-0.5,0c-2.8-0.1-3.4-2.6-3.3-5.2c0.1-2.9,1.8-3.6,4.3-3.4
			C843.3,158.1,844.1,160,844.1,162.3z"/>
		<path class="st13" d="M281.2,592.6c-2,13-4,26.1-5.9,39.1c-9.1,0.5-18.3,0.4-27.4,0c2.1-12.7,4.1-25.5,6.2-38.2
			c0.3-4.3,3.4-5.3,6.9-5.5c4.1-0.2,8.3,0.2,12.5-0.1C277.2,587.6,279.6,589.2,281.2,592.6z"/>
		<path class="st13" d="M390.4,585.9c-4.2,0-8.3-0.1-12.5,0c-3.7,0.2-4.9-2.2-3.2-4.6c7.1-10.2,5.6-21.7,5.6-32.9
			c0-19.5,0.1-38.9,0.1-58.4h8.1c0.1,0.1,0.1,0.3,0.2,0.4c0.1,0.1,0.1,0.3,0.1,0.4c0,0.1,0.1,0.2,0.1,0.3c0,0.2,0.1,0.4,0.1,0.6
			c0,0.2,0,0.4,0,0.6c0,0.2,0,0.4,0,0.6c0,0.2,0,0.3-0.1,0.5c-0.1,0.5-0.2,0.9-0.3,1.4l-0.1,0.5c0,0.2-0.1,0.4-0.1,0.6
			c0,0.1,0,0.3-0.1,0.4c-0.1,0.4-0.1,0.7-0.1,1.1c0.2,21.8,0,43.6,0.1,65.3c0,6.6,2.3,12.9,4.7,18.8
			C394.8,585.5,393.6,585.9,390.4,585.9z"/>
		<path class="st7" d="M578.1,767.4c-2.3,0.3-2.6,1.9-2.9,3.9c-1.8,11.3-9.1,17.6-20.5,17.6c-13.2,0-26.3,0-39.5,0
			c-12.1-0.1-19.2-6.2-21-18.2c-0.2-1.7-0.6-2.9-2.4-3.2c0-1.6,1.6-1.4,2.3-2.2c2.1,0.2,3.2-1,4.3-2.7c4.3-6.8,10.7-9.6,18.5-9.6
			c11.5,0,22.9,0.1,34.4,0c8.6-0.1,15.6,2.7,20.1,10.4c0.5,1.1,1.5,1.8,2.7,1.9C575.1,766.6,578.1,764.6,578.1,767.4z"/>
		<path class="st9" d="M518.2,744.6c-10.5-6.1-21-9.3-31.8-9c-0.4,0-0.7,0-1.1,0c-0.1,0-0.2,0-0.4,0c-0.3,0-0.6,0-1,0.1l0,0
			l-1.6,0.2c-0.5,0.1-1.1,0.1-1.7,0.2c-1.1,0.2-2.2,0.4-3.3,0.6c-0.3,0-0.6,0.1-0.8,0.2c-0.5,0.1-0.9,0.2-1.4,0.3s-1.1,0.3-1.7,0.5
			l-0.3,0.1l-0.7,0.2c-1.7,0.6-3.5,1.2-5.1,1.9l0,0l-0.8,0.5c-14.5,3.8-29.2,6.7-44,8.8c-12.6,1-25.1,2.2-37.7,3
			c-35.2,2.3-70.5,1.9-105.8,0.2c-1.3-0.1-3.1,0.6-3.9-1.4c1.5-1.8,3.4-0.8,5.1-0.8c45.9,1.8,91.8,2.2,137.6-3.3
			c17.9-2,35.5-5.6,52.6-10.9c15-4.7,29.6-3.7,43.5,3.9C515.5,740.8,517.5,741.2,518.2,744.6z"/>
		<path class="st9" d="M792.1,752.6c-0.9,1.8-2.3,1.2-3.5,1.2c-26.3-0.4-52.6-0.9-79-1.2c-14-0.2-26-6.5-38.4-11.6
			c-15.8-6.6-32.1-12.1-48.7-16.6c-22.6-6-43.2-1.4-62.3,11.3c-1.5,1-2.6,2.5-5.6,2.7c2.2-3.9,5.4-5.3,8.2-7
			c19.2-11.6,39.5-14.9,61.4-9c20.4,5.6,40.3,12.8,59.6,21.5c9.4,4.2,19.7,6.4,30,6.5c24.5,0.3,49,0.8,73.5,1.3
			C788.9,751.8,790.6,751.3,792.1,752.6z"/>
		<path class="st9" d="M654.2,752.8c-0.2,0.8-0.9,0.8-1.5,0.5c-1.2-0.6-2.4-1.2-3.6-1.8c-19.5-9.3-40-13.1-61.5-10
			c-1,0.1-2,0.2-3,0.2c-0.2,0-0.5-0.4-1.7-1.5c6.8-1.7,13.9-2.4,20.9-2.2c16.3,0.4,32.4,4.4,47,11.8c1,0.5,2,1.1,3,1.7
			C654.2,751.9,654.3,752.3,654.2,752.8z"/>
		<path class="st9" d="M494.2,765.1c-0.7,0.8-2.3,0.7-2.3,2.2c-7.5,0.9-14.9,0.2-22.4,0.4c-3.3,0.1-3.2-2.2-3.1-4.4
			c0-7.6,0.1-15.3,0.2-22.9l0.8-0.5l0,0c0.1,0.7,0.2,1.3,0.3,2c0.1,0.6,0.1,1.1,0.1,1.7c0.3,5.3-0.9,10.7-1,16
			c0,3.9,1.2,5.2,5.1,5.2C479.4,764.8,486.9,764.2,494.2,765.1z"/>
		<path class="st2" d="M279.5,640c-4.7,13.3-11.9,18.5-24.6,17.6c-10.9-0.8-18.6-13-14.5-23c1.4-3.5,5-1.8,7.4-2.8
			c9.1,0.3,18.3,0.4,27.4,0C280.5,633.4,281.3,634.9,279.5,640z"/>
		<path class="st0" d="M619.9,289.8c-9.5,7.8-20.5,13-31.4,18.3c-4,2-8.2,3.7-12.2,5.6c-0.3-5.7-2.8-10.8-4.7-16
			c-0.6-1.5-1-3.1-1.5-4.7c15.5-5,31.2-9,47.7-9.3c1.6,0,3.6-0.4,4.4,1.5C623,287.3,621.3,288.6,619.9,289.8z"/>
		<path class="st0" d="M415.3,370.2c-11,3.3-22.3,5.4-33.7,6.5c-2.9,0.3-6.9,1-8-2c-1.2-3.2,2.7-4.9,5-6.6
			c8.9-6.2,18.4-11.4,28.4-15.6c1.8,4.6,3.6,9.2,5.2,13.9C412.8,368,413.9,369.3,415.3,370.2z"/>
		<path class="st1" d="M345.2,392.4l46.3-9.2C376.3,387.5,361,391.2,345.2,392.4z"/>
		<path class="st1" d="M524.6,341.9l20.7-8.2c0.2,0.4,0.3,0.7,0.4,1.1L525,343L524.6,341.9z"/>
		<path class="st1" d="M572.2,322.9c-2.9,2.9-6.8,3.7-10.5,4.6C564.9,325.3,568.5,323.8,572.2,322.9L572.2,322.9z"/>
		<path class="st1" d="M603.8,309c-3.1,2.1-6.7,3.5-10.5,4.1l10-4.9L603.8,309z"/>
		<path class="st3" d="M613.4,304.2c-2.8,2.4-6.1,4-9.6,4.8c-0.1-0.3-0.3-0.6-0.4-0.9c2.8-2.2,6.1-3.7,9.6-4.5
			C613.2,303.8,613.3,304,613.4,304.2z"/>
		<path class="st1" d="M510.2,340c-3,1.9-6.4,3.2-10,3.8C502.7,340.8,506.4,339.4,510.2,340z"/>
		<path class="st1" d="M559,328.5c-3.4,2.7-6.3,3.2-9.1,3.9C552.2,330.5,554.9,329.7,559,328.5z"/>
		<path class="st1" d="M572.2,322.9c2.6-1.9,5.6-3.1,8.7-3.6C578.3,321.1,575.6,322.8,572.2,322.9L572.2,322.9z"/>
		<path class="st1" d="M590.7,315c-3.2,2-5.4,3.4-9.2,3.7C584.6,316.8,586.9,315.5,590.7,315z"/>
		<path class="st3" d="M621.4,300.1c-2.2,2.1-5,3.6-8,4.1c-0.1-0.2-0.3-0.4-0.4-0.5c2.1-2.2,5-3.6,8-4L621.4,300.1z"/>
		<path class="st3" d="M630.4,295.1c-1.8,2.1-4.2,2.8-6.7,3.4c1.3-2.6,3.6-3.5,6.2-3.8L630.4,295.1z"/>
		<path class="st1" d="M515.2,338.1c-1.3,1.2-3.1,1.8-4.8,1.8C511,336.7,513.4,338.2,515.2,338.1z"/>
		<path class="st1" d="M523.7,343c-1.2,0.8-1.7,1.1-2.3,1.4c-0.4,0.1-0.9,0.2-1.3,0.3c-0.4-1.1,0.7-1.2,1.1-1.4
			S522.4,343.1,523.7,343z"/>
		<path class="st3" d="M631,293.6c0.7-0.8,1.3-1.8,2.7-1.4c0.2,0,0.3,0.6,0.2,0.8c-0.5,1.1-1.5,0.9-2.4,1.1
			C631.3,293.9,631.1,293.8,631,293.6z"/>
		<path class="st3" d="M636.1,291.8c-0.2-0.2-0.4-0.5-0.6-0.8c0.3-0.3,0.6-0.6,0.9-0.8c0.2,0.2,0.5,0.5,0.5,0.6
			C636.6,291.2,636.4,291.5,636.1,291.8z"/>
		<path class="st3" d="M640,287.7l2-1l0.5,0.4l-2,1L640,287.7z"/>
		<path class="st1" d="M559.7,328.1l0.3,0.3c-0.1,0.1-0.2,0.2-0.3,0.2s-0.2-0.2-0.3-0.3L559.7,328.1z"/>
		<path class="st1" d="M548.1,333.4c-0.1,0.1-0.3,0.3-0.4,0.3s-0.2-0.2-0.4-0.3c0.1-0.1,0.3-0.3,0.4-0.3S548,333.2,548.1,333.4z"/>
		<path class="st3" d="M640.4,288.1l-1,1l-0.4-0.4l1-1L640.4,288.1z"/>
		<path class="st3" d="M630,294.6l1-1c0.2,0.2,0.3,0.3,0.5,0.5l-1,1L630,294.6z"/>
		<path class="st3" d="M642,286.6l1-1c0.1,0.1,0.3,0.3,0.4,0.4l-1,1L642,286.6z"/>
		<path class="st3" d="M643,285.6c0.2-0.3,0.5-0.8,0.9-0.2c0,0.1-0.3,0.4-0.5,0.6C643.3,285.9,643.1,285.8,643,285.6z"/>
		<path class="st3" d="M639.4,289.1c-0.3,0.3-0.5,0.8-1,0.2c0-0.1,0.3-0.4,0.5-0.6L639.4,289.1z"/>
		<path class="st3" d="M621,299.6c0.3-0.4,0.6-0.8,1-0.2c0,0-0.4,0.4-0.6,0.7L621,299.6z"/>
		<path class="st1" d="M591.8,314l0.3,0.4c-0.1,0.1-0.3,0.3-0.4,0.3s-0.2-0.2-0.3-0.3L591.8,314z"/>
		<path class="st10" d="M637.1,397.3c-0.2,3.1-2.6,4.7-5.3,4.7h-0.2c-3.5,0.1-5.4-1.4-5.3-4.4c0.1-3.8,3.2-3.6,5.9-3.8
			c0.4,0,0.8,0,1.3,0C635.5,393.9,637.3,394.9,637.1,397.3z"/>
		<path class="st5" d="M275.1,380c0,7.7-3.4,9.7-10,6c-17.1-9.5-34.2-19.1-51.3-28.7c-1.7-1-3.5-1.9-4.2-4c-0.7-1.9-0.2-4.1,1.2-5.5
			c1.3-1.3,2.6-1.5,4.5-0.7c16.8,7.4,32.7,5.2,48.1-4.1c3.2-2.1,6.7-3.7,10.3-4.8c1.2,1.5,1,3.2,1,4.9
			C274.9,355.3,275,367.7,275.1,380z"/>
		<path class="st15" d="M726.3,253.8l-0.3,0.4c-0.4-0.2-1.1-0.4-0.6-0.9S726.2,253.2,726.3,253.8z"/>
		<polygon class="st15" points="724.1,252.4 723.7,252.5 723.8,252.2 		"/>
		<path class="st9" d="M529.3,738.3c-9.5-8-24.1-17.5-42.9-19.4c-21.2-2.2-32.4,7-60.1,13.7c-29.1,7-52.5,5.6-68.4,4.6
			c-20-1.2-51.3-5.7-87.7-22.4c7.7-27.5,32.3-108.5,65.2-108.1c3.8,0,6.6,1.2,15,5.6c51.8,27.4,52.8,41.2,76.6,48.8
			c29.7,9.4,46.8-6.2,76.5,7.9c13.1,6.2,18,13.2,20.1,16.8c7,12.1,4.9,26,6.2,26c1.5,0-0.9-18,9.3-30.6c6.6-8.2,15.9-11,20.1-12.2
			c32.8-9.8,69.6,22.5,123.7,30.6c53.5,8.1,81.4-13.9,105.7,7.8c12.2,10.8,16.3,26.2,17.9,37.5l-66.6-4.1
			c-18.7-1.2-37.3-4.3-55.3-9.5c-28.7-8.2-72.9-19.8-87.7-18.6c-37.9,3.1-58.5,26.2-58.5,26.2"/>
	</g>
</g>
<rect x="893.1" y="-49.1" class="st0" width="99.9" height="384.8"/>
<rect x="549.4" y="-49.1" class="st0" width="360.6" height="169.5"/>
</svg>
